G04 ================== begin FILE IDENTIFICATION RECORD ==================*
G04 Layout Name:  C:/ORCAD_PROJECTS/RAILROAD/allegro/RAILLROAD.brd*
G04 Film Name:    BOTTOM*
G04 File Format:  Gerber RS274X*
G04 File Origin:  Cadence Allegro 17.2-S055*
G04 Origin Date:  Mon Jul 15 15:27:48 2019*
G04 *
G04 Layer:  VIA CLASS/BOTTOM*
G04 Layer:  PIN/BOTTOM*
G04 Layer:  ETCH/BOTTOM*
G04 *
G04 Offset:    (0.00 0.00)*
G04 Mirror:    No*
G04 Mode:      Positive*
G04 Rotation:  0*
G04 FullContactRelief:  No*
G04 UndefLineWidth:     0.20*
G04 ================== end FILE IDENTIFICATION RECORD ====================*
%FSLAX25Y25*MOIN*%
%IR0*IPPOS*OFA0.00000B0.00000*MIA0B0*SFA1.00000B1.00000*%
%ADD12C,.024*%
%ADD15C,.053*%
%ADD18C,.068*%
%ADD16R,.053X.053*%
%ADD17C,.05906*%
%ADD11C,.06299*%
%ADD10C,.27165*%
%ADD13C,.15748*%
%ADD14O,.15748X.3937*%
%ADD19C,.02*%
%ADD20C,.015*%
%ADD21C,.08*%
%ADD23O,.16752X.40374*%
%ADD22O,.27352X.50974*%
G75*
%LPD*%
G75*
G36*
G01X307500Y337500D02*
X300000Y345000D01*
Y552500D01*
X305000Y557500D01*
X395000D01*
Y337500D01*
X307500D01*
G37*
%LPC*%
G75*
G54D23*
X369606Y367992D03*
G54D22*
Y447992D03*
Y527992D03*
X329606Y487992D03*
Y407992D03*
%LPD*%
G75*
G36*
G01X315000Y395000D02*
Y400000D01*
X317500D01*
X320000Y397500D01*
X317500Y395000D01*
X315000D01*
G37*
G36*
G01Y402500D02*
Y407500D01*
X317500D01*
X320000Y405000D01*
X317500Y402500D01*
X315000D01*
G37*
G36*
G01Y410000D02*
Y415000D01*
X317500D01*
X320000Y412500D01*
X317500Y410000D01*
X315000D01*
G37*
G36*
G01Y417500D02*
Y422500D01*
X317500D01*
X320000Y420000D01*
X317500Y417500D01*
X315000D01*
G37*
G36*
G01Y472500D02*
Y477500D01*
X317500D01*
X320000Y475000D01*
X317500Y472500D01*
X315000D01*
G37*
G36*
G01Y480000D02*
Y485000D01*
X317500D01*
X320000Y482500D01*
X317500Y480000D01*
X315000D01*
G37*
G36*
G01Y487500D02*
Y492500D01*
X317500D01*
X320000Y490000D01*
X317500Y487500D01*
X315000D01*
G37*
G36*
G01Y495000D02*
Y500000D01*
X317500D01*
X320000Y497500D01*
X317500Y495000D01*
X315000D01*
G37*
G36*
G01X355000Y447500D02*
Y452500D01*
X357500D01*
X360000Y450000D01*
X357500Y447500D01*
X355000D01*
G37*
G36*
G01Y440000D02*
Y445000D01*
X357500D01*
X360000Y442500D01*
X357500Y440000D01*
X355000D01*
G37*
G36*
G01Y432500D02*
Y437500D01*
X357500D01*
X360000Y435000D01*
X357500Y432500D01*
X355000D01*
G37*
G36*
G01Y455000D02*
Y460000D01*
X357500D01*
X360000Y457500D01*
X357500Y455000D01*
X355000D01*
G37*
G36*
G01Y537500D02*
Y542500D01*
X357500D01*
X360000Y540000D01*
X357500Y537500D01*
X355000D01*
G37*
G36*
G01Y530000D02*
Y535000D01*
X357500D01*
X360000Y532500D01*
X357500Y530000D01*
X355000D01*
G37*
G36*
G01Y522500D02*
Y527500D01*
X357500D01*
X360000Y525000D01*
X357500Y522500D01*
X355000D01*
G37*
G36*
G01Y515000D02*
Y520000D01*
X357500D01*
X360000Y517500D01*
X357500Y515000D01*
X355000D01*
G37*
G54D10*
X290000Y200000D03*
Y650000D03*
X590000Y200000D03*
Y650000D03*
G54D20*
G01X439800Y229400D02*
X440400Y230000D01*
G01D02*
X462500Y252100D01*
Y255000D01*
G01X440000Y230000D02*
X440400D01*
G01X440000Y285000D02*
X455000D01*
X462500Y292500D01*
G01X487500Y280000D02*
X492500D01*
X502500Y270000D01*
G01X482500Y277500D02*
X495000Y265000D01*
X505000D01*
X507500Y267500D01*
Y272500D01*
G01X502500Y302500D02*
X497500Y297500D01*
Y282500D01*
X502500Y277500D01*
G01X527500Y225000D02*
X540000Y237500D01*
Y286000D01*
X538500Y287500D01*
X532500D01*
G01X525000D02*
Y580000D01*
X535000Y590000D01*
G54D11*
X289291Y229843D03*
X299291D03*
X329291D03*
Y609843D03*
X339291Y229843D03*
Y609843D03*
X369291D03*
X379291D03*
X409291D03*
X419291D03*
G54D21*
G01X360830Y367992D02*
X369606D01*
G01Y347405D02*
Y367992D01*
G01D02*
Y388579D01*
G01Y367992D02*
X378382D01*
G54D12*
X290000Y257500D03*
Y287500D03*
X320000Y195000D03*
X318583Y245000D03*
Y290000D03*
X327638Y287362D03*
X312500Y398100D03*
Y405400D03*
Y412700D03*
Y420000D03*
Y475600D03*
Y482900D03*
Y490200D03*
Y497500D03*
X330000Y545000D03*
X350000Y195000D03*
X340000Y285000D03*
X352500Y435600D03*
Y442900D03*
Y450200D03*
Y457500D03*
Y518100D03*
Y525400D03*
Y532700D03*
Y540000D03*
X360000Y580000D03*
X417500Y280000D03*
Y272500D03*
X420000Y582500D03*
X400000D03*
X440000Y230000D03*
X425000Y280000D03*
X447500Y272500D03*
Y280000D03*
X440000Y285000D03*
X437500Y272500D03*
X427500D03*
X447500Y307500D03*
X427500Y310000D03*
X432500Y315000D03*
X444094Y346594D03*
Y421594D03*
X442500Y500000D03*
X472500Y230000D03*
X462500Y255000D03*
X452500Y272500D03*
X475000Y290000D03*
X462500Y292500D03*
X472500Y310000D03*
X455000Y400000D03*
Y475000D03*
X485000Y260000D03*
X502500Y270000D03*
Y277500D03*
Y285000D03*
Y290000D03*
X487500Y280000D03*
X507500Y272500D03*
X482500Y277500D03*
X492500Y322500D03*
X507500Y327500D03*
X487500Y310000D03*
X502500Y302500D03*
X500000Y392500D03*
X507500Y400000D03*
X492500D03*
X500000Y472500D03*
X492500Y480000D03*
X507500D03*
X525000Y262500D03*
X535000Y300000D03*
X532500Y294075D03*
Y273602D03*
X527500Y278720D03*
X532500Y287500D03*
X525000D03*
X517500Y600000D03*
X535000Y590000D03*
X557500Y292500D03*
X585000Y270000D03*
X577500Y292500D03*
G54D13*
X290000Y310000D03*
X380157D03*
G54D14*
X329606Y407992D03*
Y487992D03*
X369606Y367992D03*
Y447992D03*
Y527992D03*
G54D15*
X390000Y212500D03*
X400000Y202500D03*
X450000Y200000D03*
X440000Y210000D03*
G54D16*
X380000Y202500D03*
X430000Y200000D03*
G54D17*
X420000Y330472D03*
Y360000D03*
Y390472D03*
Y420000D03*
Y460472D03*
Y490000D03*
Y520472D03*
Y550000D03*
X542500Y215000D03*
X537500Y225000D03*
X532500Y215000D03*
X527500Y225000D03*
X552500Y215000D03*
X547500Y225000D03*
G54D18*
X480000Y590000D03*
X470000D03*
X490000D03*
G54D19*
G01X427500Y272500D02*
X417500D01*
G01D02*
X414500D01*
X412500Y274500D01*
Y293000D01*
X414500Y295000D01*
X435000D01*
X447500Y307500D01*
G01X437500Y272500D02*
X427500D01*
G01Y310000D02*
Y447500D01*
X455000Y475000D01*
G01X432500Y315000D02*
Y377500D01*
X455000Y400000D01*
M02*
