G04 ================== begin FILE IDENTIFICATION RECORD ==================*
G04 Layout Name:  C:/ORCAD_PROJECTS/RAILROAD/allegro/RAILLROAD.brd*
G04 Film Name:    LAYER_1*
G04 File Format:  Gerber RS274X*
G04 File Origin:  Cadence Allegro 17.2-S055*
G04 Origin Date:  Sun Jun 23 11:03:22 2019*
G04 *
G04 Layer:  ETCH/LAYER_1*
G04 Layer:  PIN/LAYER_1*
G04 Layer:  VIA CLASS/LAYER_1*
G04 *
G04 Offset:    (0.00 0.00)*
G04 Mirror:    No*
G04 Mode:      Positive*
G04 Rotation:  0*
G04 FullContactRelief:  No*
G04 UndefLineWidth:     0.00*
G04 ================== end FILE IDENTIFICATION RECORD ====================*
%FSLAX25Y25*MOIN*%
%IR0*IPPOS*OFA0.00000B0.00000*MIA0B0*SFA1.00000B1.00000*%
%ADD12C,.024*%
%ADD16C,.075*%
%ADD18C,.068*%
%ADD15R,.075X.075*%
%ADD17C,.05906*%
%ADD11C,.06299*%
%ADD10C,.27165*%
%ADD13C,.15748*%
%ADD14O,.15748X.3937*%
%ADD19C,.08*%
%ADD20C,.008*%
%ADD24C,.04004*%
%ADD29C,.0751*%
%ADD25C,.09104*%
%ADD28C,.0691*%
%ADD27C,.08404*%
%ADD31C,.07902*%
%ADD26C,.07804*%
%ADD23C,.15006*%
%ADD30C,.17352*%
%ADD22O,.16752X.40374*%
%ADD21O,.27352X.50974*%
%ADD32C,.28768*%
G75*
%LPD*%
G75*
G36*
G01X599678Y682500D02*
X615999D01*
Y175000D01*
X254001D01*
Y682500D01*
X580322D01*
G02X580832Y681084I0J-800D01*
G03X575616Y670000I9169J-11084D01*
G03X604384I14384J0D01*
G03X599168Y681084I-14385J0D01*
G02X599678Y682500I510J616D01*
G37*
%LPC*%
G75*
G36*
G01X375748Y186250D02*
Y193750D01*
G02X376250Y194252I502J0D01*
G01X383750D01*
G02X384252Y193750I0J-502D01*
G01Y186250D01*
G02X383750Y185748I-502J0D01*
G01X376250D01*
G02X375748Y186250I0J502D01*
G37*
G36*
G01X425748D02*
Y193750D01*
G02X426250Y194252I502J0D01*
G01X433750D01*
G02X434252Y193750I0J-502D01*
G01Y186250D01*
G02X433750Y185748I-502J0D01*
G01X426250D01*
G02X425748Y186250I0J502D01*
G37*
G54D24*
X535000Y300000D03*
X557500Y292500D03*
X425000Y280000D03*
X432500Y315000D03*
X507500Y400000D03*
X492500D03*
X417500Y280000D03*
X500000Y392500D03*
X455000Y475000D03*
X507500Y272500D03*
X455000Y400000D03*
X318583Y290000D03*
X427500Y272500D03*
X535000Y590000D03*
X472500Y310000D03*
X318583Y245000D03*
X417500Y272500D03*
X492500Y480000D03*
X502500Y277500D03*
X482500D03*
X437500Y272500D03*
X487500Y280000D03*
X427500Y310000D03*
X502500Y290000D03*
X507500Y480000D03*
X502500Y270000D03*
X447500Y307500D03*
X500000Y472500D03*
X462500Y255000D03*
X507500Y327500D03*
X502500Y302500D03*
X492500Y322500D03*
X502500Y285000D03*
X525000Y262500D03*
X487500Y310000D03*
X532500Y287500D03*
X525000D03*
X440000Y285000D03*
X462500Y292500D03*
X472500Y230000D03*
X442500Y500000D03*
X444094Y421594D03*
Y346594D03*
X290000Y287500D03*
G54D29*
X547500Y225000D03*
X542500Y215000D03*
X532500D03*
X527500Y225000D03*
X420000Y330472D03*
Y520472D03*
Y390472D03*
Y460472D03*
G54D25*
X449700Y190000D03*
X439800Y229400D03*
X399700Y190000D03*
X389800Y229400D03*
G54D28*
X552500Y215000D03*
X537500Y225000D03*
X420000Y360000D03*
Y550000D03*
Y420000D03*
Y490000D03*
G54D27*
X480000Y590000D03*
X470000D03*
G54D31*
X339291Y229843D03*
X329291D03*
X299291D03*
X289291D03*
X419291Y609843D03*
X409291D03*
X379291D03*
X369291D03*
X339291D03*
X329291D03*
G54D26*
X490000Y590000D03*
G54D23*
X560000Y190000D03*
X520000D03*
G54D30*
X380157Y310000D03*
X290000D03*
G54D22*
X369606Y367992D03*
G54D21*
Y527992D03*
X329606Y487992D03*
X369606Y447992D03*
X329606Y407992D03*
G54D32*
X590000Y200000D03*
X300000Y660000D03*
X290000Y200000D03*
%LPD*%
G75*
G54D10*
X290000Y200000D03*
X300000Y660000D03*
X590000Y200000D03*
Y670000D03*
G54D20*
G01X380000Y185348D02*
Y190000D01*
G01D02*
Y194652D01*
G01X375348Y190000D02*
X380000D01*
G01D02*
X384652D01*
G01X420000Y356145D02*
Y360000D01*
G01D02*
Y363855D01*
G01X416145Y360000D02*
X420000D01*
G01D02*
X423855D01*
G01X420000Y416145D02*
Y420000D01*
G01D02*
Y423855D01*
G01X416145Y420000D02*
X420000D01*
G01D02*
X423855D01*
G01X420000Y486145D02*
Y490000D01*
G01D02*
Y493855D01*
G01X416145Y490000D02*
X420000D01*
G01D02*
X423855D01*
G01X420000Y546145D02*
Y550000D01*
G01D02*
Y553855D01*
G01X416145Y550000D02*
X420000D01*
G01D02*
X423855D01*
G01X430000Y185348D02*
Y190000D01*
G01D02*
Y194652D01*
G01X425348Y190000D02*
X430000D01*
G01D02*
X434652D01*
G01X490000Y585698D02*
Y590000D01*
G01D02*
Y594302D01*
G01X485698Y590000D02*
X490000D01*
G01D02*
X494302D01*
G01X537500Y221145D02*
Y225000D01*
G01D02*
Y228855D01*
G01X533645Y225000D02*
X537500D01*
G01D02*
X541355D01*
G01X552500Y211145D02*
Y215000D01*
G01D02*
Y218855D01*
G01X548645Y215000D02*
X552500D01*
G01D02*
X556355D01*
G54D11*
X289291Y229843D03*
X299291D03*
X329291D03*
Y609843D03*
X339291Y229843D03*
Y609843D03*
X369291D03*
X379291D03*
X409291D03*
X419291D03*
G54D12*
X290000Y257500D03*
Y287500D03*
X320000Y195000D03*
X318583Y245000D03*
Y290000D03*
X327638Y287362D03*
X312500Y398100D03*
Y405400D03*
Y412700D03*
Y420000D03*
Y475600D03*
Y482900D03*
Y490200D03*
Y497500D03*
X330000Y545000D03*
X350000Y195000D03*
X340000Y285000D03*
X352500Y435600D03*
Y442900D03*
Y450200D03*
Y457500D03*
Y518100D03*
Y525400D03*
Y532700D03*
Y540000D03*
X360000Y580000D03*
X417500Y280000D03*
Y272500D03*
X420000Y582500D03*
X400000D03*
X425000Y280000D03*
X447500Y272500D03*
Y280000D03*
X440000Y285000D03*
X437500Y272500D03*
X427500D03*
X447500Y307500D03*
X427500Y310000D03*
X432500Y315000D03*
X444094Y346594D03*
Y421594D03*
X442500Y500000D03*
X472500Y230000D03*
X462500Y255000D03*
X452500Y272500D03*
X475000Y290000D03*
X462500Y292500D03*
X472500Y310000D03*
X455000Y400000D03*
Y475000D03*
X485000Y260000D03*
X502500Y270000D03*
Y277500D03*
Y285000D03*
Y290000D03*
X487500Y280000D03*
X507500Y272500D03*
X482500Y277500D03*
X492500Y322500D03*
X507500Y327500D03*
X487500Y310000D03*
X502500Y302500D03*
X500000Y392500D03*
X507500Y400000D03*
X492500D03*
X500000Y472500D03*
X492500Y480000D03*
X507500D03*
X525000Y262500D03*
X535000Y300000D03*
X532500Y294075D03*
Y273602D03*
X527500Y278720D03*
X532500Y287500D03*
X525000D03*
X517500Y600000D03*
X535000Y590000D03*
X557500Y292500D03*
X585000Y270000D03*
X577500Y292500D03*
G54D13*
X290000Y310000D03*
X380157D03*
G54D14*
X329606Y407992D03*
Y487992D03*
X369606Y367992D03*
Y447992D03*
Y527992D03*
G54D15*
X380000Y190000D03*
X430000D03*
G54D16*
X389800Y229400D03*
X399700Y190000D03*
X449700D03*
X439800Y229400D03*
G54D17*
X420000Y330472D03*
Y360000D03*
Y390472D03*
Y420000D03*
Y460472D03*
Y490000D03*
Y520472D03*
Y550000D03*
X542500Y215000D03*
X537500Y225000D03*
X532500Y215000D03*
X527500Y225000D03*
X552500Y215000D03*
X547500Y225000D03*
G54D18*
X480000Y590000D03*
X470000D03*
X490000D03*
G54D19*
G01X360830Y367992D02*
X369606D01*
G01Y347405D02*
Y367992D01*
G01D02*
Y388579D01*
G01Y367992D02*
X378382D01*
M02*
