G04 ================== begin FILE IDENTIFICATION RECORD ==================*
G04 Layout Name:  C:/ORCAD_PROJECTS/RAILROAD/allegro/RAILLROAD.brd*
G04 Film Name:    LAYER_2*
G04 File Format:  Gerber RS274X*
G04 File Origin:  Cadence Allegro 17.2-S055*
G04 Origin Date:  Sun Jun 23 11:03:22 2019*
G04 *
G04 Layer:  ETCH/LAYER_2*
G04 Layer:  PIN/LAYER_2*
G04 Layer:  VIA CLASS/LAYER_2*
G04 *
G04 Offset:    (0.00 0.00)*
G04 Mirror:    No*
G04 Mode:      Positive*
G04 Rotation:  0*
G04 FullContactRelief:  No*
G04 UndefLineWidth:     0.00*
G04 ================== end FILE IDENTIFICATION RECORD ====================*
%FSLAX25Y25*MOIN*%
%IR0*IPPOS*OFA0.00000B0.00000*MIA0B0*SFA1.00000B1.00000*%
%ADD12C,.024*%
%ADD16C,.075*%
%ADD18C,.068*%
%ADD15R,.075X.075*%
%ADD17C,.05906*%
%ADD11C,.06299*%
%ADD10C,.27165*%
%ADD13C,.15748*%
%ADD14O,.15748X.3937*%
%ADD19C,.015*%
%ADD20C,.025*%
%ADD21C,.008*%
%ADD23C,.04004*%
%ADD30C,.07302*%
%ADD28C,.0751*%
%ADD25C,.09104*%
%ADD26C,.08404*%
%ADD24C,.08504*%
%ADD29C,.07902*%
%ADD27C,.07804*%
%ADD22C,.15006*%
%ADD32C,.16752*%
%ADD31C,.28768*%
G75*
%LPD*%
G75*
G36*
G01X437500Y615000D02*
X610000D01*
Y175000D01*
X270000D01*
Y300000D01*
X291370D01*
G02X291935Y298634I0J-800D01*
G01X283798Y290498D01*
Y284502D01*
X287002Y281298D01*
X295498D01*
X298702Y284502D01*
Y292002D01*
X302998Y296298D01*
X321298D01*
Y221298D01*
X336202D01*
Y225680D01*
G02X337387Y226381I800J0D01*
G03X339291Y225892I1904J3462D01*
G03Y233794I0J3951D01*
G03X337387Y233305I0J-3951D01*
G02X336202Y234006I-385J701D01*
G01Y296298D01*
X407002D01*
X411296Y292004D01*
Y277004D01*
X414502Y273798D01*
X414743D01*
G02X415530Y272856I0J-800D01*
G03X415498Y272500I1970J-357D01*
G03X419502I2002J0D01*
G03X419470Y272856I-2002J-1D01*
G02X420257Y273798I787J142D01*
G01X424743D01*
G02X425530Y272856I0J-800D01*
G03X425498Y272500I1970J-357D01*
G03X429502I2002J0D01*
G03X429470Y272856I-2002J-1D01*
G02X430257Y273798I787J142D01*
G01X430498D01*
X433702Y277002D01*
Y292002D01*
X447210Y305511D01*
X447389Y305501D01*
G03X447500Y305498I110J1999D01*
G03X449502Y307500I0J2002D01*
G03X449499Y307611I-2002J1D01*
G01X449489Y307790D01*
X455498Y313798D01*
X477002D01*
X481298Y309502D01*
Y307002D01*
X484502Y303798D01*
X497998D01*
X514199Y320000D01*
X522500D01*
Y550000D01*
X437500D01*
Y615000D01*
G37*
G36*
G01X440000Y505000D02*
X515000D01*
Y322500D01*
X497500Y305000D01*
X485000D01*
X482500Y307500D01*
Y310000D01*
X477500Y315000D01*
X455000D01*
X448916Y308916D01*
G03X447500Y309502I-1415J-1416D01*
G03X445498Y307500I0J-2002D01*
G03X446084Y306084I2002J-1D01*
G01X432500Y292500D01*
Y277500D01*
X430000Y275000D01*
X415000D01*
X412498Y277502D01*
Y292502D01*
X407500Y297500D01*
X335000D01*
Y222500D01*
X322500D01*
Y297500D01*
X302500D01*
X297500Y292500D01*
Y285000D01*
X295000Y282500D01*
X287500D01*
X285000Y285000D01*
Y290000D01*
X302500Y307500D01*
X322500D01*
Y325000D01*
X430000D01*
Y355000D01*
X432500Y357500D01*
X460000D01*
Y412500D01*
X437500D01*
Y430000D01*
X460000D01*
Y492500D01*
X457500Y495000D01*
X440000D01*
X437500Y497500D01*
Y502500D01*
X440000Y505000D01*
G37*
%LPC*%
G75*
G36*
G01X375448Y186250D02*
Y193750D01*
G02X376250Y194552I802J0D01*
G01X383750D01*
G02X384552Y193750I0J-802D01*
G01Y186250D01*
G02X383750Y185448I-802J0D01*
G01X376250D01*
G02X375448Y186250I0J802D01*
G37*
G36*
G01X425448D02*
Y193750D01*
G02X426250Y194552I802J0D01*
G01X433750D01*
G02X434552Y193750I0J-802D01*
G01Y186250D01*
G02X433750Y185448I-802J0D01*
G01X426250D01*
G02X425448Y186250I0J802D01*
G37*
G36*
G01X498903Y291097D02*
G02X500000Y291552I1098J-1097D01*
G01X501235D01*
G02X502500Y292002I1265J-1553D01*
G02Y287998I0J-2002D01*
G02X501333Y288373I0J2003D01*
G01X501228Y288448D01*
X500643D01*
X499052Y286857D01*
Y248143D01*
X522394Y224800D01*
G03X523757Y225302I566J566D01*
G02X527500Y228755I3743J-302D01*
G02X531255Y225000I0J-3755D01*
G02X530555Y222817I-3754J0D01*
G03X531206Y221552I651J-465D01*
G01X533794D01*
G03X534445Y222817I0J800D01*
G02X533745Y225000I3054J2183D01*
G02X541255I3755J0D01*
G02X539374Y221746I-3755J0D01*
G03X539207Y220487I399J-693D01*
G01X541173Y218521D01*
X541403Y218591D01*
G02X542500Y218755I1098J-3591D01*
G02X538745Y215000I0J-3755D01*
G02X538909Y216097I3755J-1D01*
G01X538979Y216327D01*
X536857Y218448D01*
X535830D01*
G03X535204Y217151I0J-800D01*
G02X535955Y215000I-2705J-2151D01*
G02X529045I-3455J0D01*
G02X529796Y217151I3456J0D01*
G03X529170Y218448I-626J497D01*
G01X525000D01*
G02X523903Y218903I1J1552D01*
G01X496403Y246403D01*
G02X495948Y247500I1097J1098D01*
G01Y287500D01*
G02X496403Y288597I1552J-1D01*
G01X498903Y291097D01*
G37*
G36*
G01X502302Y283004D02*
X502175Y283025D01*
G02X500498Y285000I324J1975D01*
G02X502500Y287002I2002J0D01*
G02X504475Y285325I0J-2001D01*
G01X504496Y285198D01*
X505643Y284052D01*
X546000D01*
G02X547097Y283597I-1J-1552D01*
G01X548597Y282097D01*
G02X549052Y281000I-1097J-1098D01*
G01Y228419D01*
G02X551255Y225000I-1552J-3419D01*
G02X543745I-3755J0D01*
G02X545948Y228419I3755J0D01*
G01Y280357D01*
X545357Y280948D01*
X529910D01*
G03X529222Y279741I0J-800D01*
G02X529502Y278720I-1722J-1021D01*
G02X525498I-2002J0D01*
G02X525778Y279741I2002J0D01*
G03X525090Y280948I-688J407D01*
G01X505000D01*
G02X503903Y281403I1J1552D01*
G01X502302Y283004D01*
G37*
G54D23*
X557500Y292500D03*
X452500Y272500D03*
X447500Y280000D03*
X532500Y273602D03*
X507500Y272500D03*
X535000Y590000D03*
X290000Y257500D03*
X502500Y277500D03*
X482500D03*
X437500Y272500D03*
X340000Y285000D03*
X487500Y280000D03*
X502500Y270000D03*
X447500Y272500D03*
X462500Y255000D03*
X502500Y302500D03*
X532500Y294075D03*
X350000Y195000D03*
X577500Y292500D03*
X517500Y600000D03*
X532500Y287500D03*
X525000D03*
X440000Y285000D03*
X462500Y292500D03*
X475000Y290000D03*
X585000Y270000D03*
X485000Y260000D03*
X320000Y195000D03*
X432500Y315000D03*
X427500Y310000D03*
X327638Y287362D03*
G54D30*
X289291Y229843D03*
X329291D03*
G54D28*
X552500Y215000D03*
G54D25*
X439800Y229400D03*
X389800D03*
G54D26*
X490000Y590000D03*
X480000D03*
G54D24*
X449700Y190000D03*
X399700D03*
G54D29*
X299291Y229843D03*
G54D27*
X470000Y590000D03*
G54D22*
X560000Y190000D03*
X520000D03*
G54D32*
X380157Y310000D03*
G54D31*
X590000Y200000D03*
X290000D03*
%LPD*%
G75*
G54D10*
X290000Y200000D03*
X300000Y660000D03*
X590000Y200000D03*
Y670000D03*
G54D20*
G01X329291Y225791D02*
Y229843D01*
G01D02*
Y233895D01*
G01X325239Y229843D02*
X329291D01*
G01D02*
X333343D01*
G01X380157Y301224D02*
Y310000D01*
G01D02*
Y318776D01*
G01X371381Y310000D02*
X380157D01*
G01D02*
X388933D01*
G54D11*
X289291Y229843D03*
X299291D03*
X329291D03*
Y609843D03*
X339291Y229843D03*
Y609843D03*
X369291D03*
X379291D03*
X409291D03*
X419291D03*
G54D21*
G01X289291Y225791D02*
Y229843D01*
G01D02*
Y233895D01*
G01X285239Y229843D02*
X289291D01*
G01D02*
X293343D01*
G01X399700Y185348D02*
Y190000D01*
G01D02*
Y194652D01*
G01X395048Y190000D02*
X399700D01*
G01D02*
X404352D01*
G01X449700Y185348D02*
Y190000D01*
G01D02*
Y194652D01*
G01X445048Y190000D02*
X449700D01*
G01D02*
X454352D01*
G01X470000Y585698D02*
Y590000D01*
G01D02*
Y594302D01*
G01X465698Y590000D02*
X470000D01*
G01D02*
X474302D01*
G01X532500Y211145D02*
Y215000D01*
G01X528645D02*
X532500D01*
G01D02*
X536355D01*
G54D12*
X290000Y257500D03*
Y287500D03*
X320000Y195000D03*
X318583Y245000D03*
Y290000D03*
X327638Y287362D03*
X312500Y398100D03*
Y405400D03*
Y412700D03*
Y420000D03*
Y475600D03*
Y482900D03*
Y490200D03*
Y497500D03*
X330000Y545000D03*
X350000Y195000D03*
X340000Y285000D03*
X352500Y435600D03*
Y442900D03*
Y450200D03*
Y457500D03*
Y518100D03*
Y525400D03*
Y532700D03*
Y540000D03*
X360000Y580000D03*
X417500Y280000D03*
Y272500D03*
X420000Y582500D03*
X400000D03*
X425000Y280000D03*
X447500Y272500D03*
Y280000D03*
X440000Y285000D03*
X437500Y272500D03*
X427500D03*
X447500Y307500D03*
X427500Y310000D03*
X432500Y315000D03*
X444094Y346594D03*
Y421594D03*
X442500Y500000D03*
X472500Y230000D03*
X462500Y255000D03*
X452500Y272500D03*
X475000Y290000D03*
X462500Y292500D03*
X472500Y310000D03*
X455000Y400000D03*
Y475000D03*
X485000Y260000D03*
X502500Y270000D03*
Y277500D03*
Y285000D03*
Y290000D03*
X487500Y280000D03*
X507500Y272500D03*
X482500Y277500D03*
X492500Y322500D03*
X507500Y327500D03*
X487500Y310000D03*
X502500Y302500D03*
X500000Y392500D03*
X507500Y400000D03*
X492500D03*
X500000Y472500D03*
X492500Y480000D03*
X507500D03*
X525000Y262500D03*
X535000Y300000D03*
X532500Y294075D03*
Y273602D03*
X527500Y278720D03*
X532500Y287500D03*
X525000D03*
X517500Y600000D03*
X535000Y590000D03*
X557500Y292500D03*
X585000Y270000D03*
X577500Y292500D03*
G54D13*
X290000Y310000D03*
X380157D03*
G54D14*
X329606Y407992D03*
Y487992D03*
X369606Y367992D03*
Y447992D03*
Y527992D03*
G54D15*
X380000Y190000D03*
X430000D03*
G54D16*
X389800Y229400D03*
X399700Y190000D03*
X449700D03*
X439800Y229400D03*
G54D17*
X420000Y330472D03*
Y360000D03*
Y390472D03*
Y420000D03*
Y460472D03*
Y490000D03*
Y520472D03*
Y550000D03*
X542500Y215000D03*
X537500Y225000D03*
X532500Y215000D03*
X527500Y225000D03*
X552500Y215000D03*
X547500Y225000D03*
G54D18*
X480000Y590000D03*
X470000D03*
X490000D03*
G54D19*
G01X542500Y215000D02*
X537500Y220000D01*
X525000D01*
X497500Y247500D01*
Y287500D01*
X500000Y290000D01*
X502500D01*
G01X547500Y225000D02*
Y281000D01*
X546000Y282500D01*
X505000D01*
X502500Y285000D01*
M02*
