G04 ================== begin FILE IDENTIFICATION RECORD ==================*
G04 Layout Name:  C:/ORCAD_PROJECTS/RAILROAD/allegro/RAILLROAD.brd*
G04 Film Name:    PASTE*
G04 File Format:  Gerber RS274X*
G04 File Origin:  Cadence Allegro 17.2-S055*
G04 Origin Date:  Mon Jul 15 15:27:48 2019*
G04 *
G04 Layer:  VIA CLASS/PASTEMASK_TOP*
G04 Layer:  PIN/PASTEMASK_TOP*
G04 Layer:  PACKAGE GEOMETRY/PASTEMASK_TOP*
G04 *
G04 Offset:    (0.00 0.00)*
G04 Mirror:    No*
G04 Mode:      Positive*
G04 Rotation:  0*
G04 FullContactRelief:  No*
G04 UndefLineWidth:     0.10*
G04 ================== end FILE IDENTIFICATION RECORD ====================*
%FSLAX25Y25*MOIN*%
%IR0*IPPOS*OFA0.00000B0.00000*MIA0B0*SFA1.00000B1.00000*%
%ADD18R,.041X.138*%
%ADD13C,.053*%
%ADD14R,.053X.053*%
%ADD20C,.05906*%
%ADD11R,.1378X.04724*%
%ADD19R,.422X.474*%
%ADD15R,.022X.078*%
%ADD21R,.066X.017*%
%ADD17R,.02362X.04724*%
%ADD12R,.04331X.07874*%
%ADD10R,.06299X.03543*%
%ADD16R,.03543X.06299*%
%LPD*%
G75*
G54D10*
X290000Y264094D03*
Y275906D03*
X320000Y204094D03*
Y215906D03*
X350000Y204094D03*
Y215906D03*
X340000Y264094D03*
Y275906D03*
X350000Y584094D03*
Y595906D03*
X390000Y584094D03*
Y595906D03*
X430000Y584094D03*
Y595906D03*
G54D11*
X318583Y259921D03*
G54D20*
X542500Y215000D03*
X537500Y225000D03*
X532500Y215000D03*
X527500Y225000D03*
X552500Y215000D03*
X547500Y225000D03*
G54D12*
X309528Y275669D03*
X318583D03*
X327638D03*
G54D21*
X515750Y263366D03*
Y265925D03*
Y268484D03*
Y271043D03*
Y273602D03*
Y276161D03*
Y278720D03*
Y281280D03*
Y283839D03*
Y286398D03*
Y288957D03*
Y291516D03*
Y294075D03*
Y296634D03*
X544250Y268484D03*
Y265925D03*
Y263366D03*
Y296634D03*
Y294075D03*
Y291516D03*
Y288957D03*
Y286398D03*
Y283839D03*
Y281280D03*
Y278720D03*
Y276161D03*
Y273602D03*
Y271043D03*
G54D13*
X390000Y212500D03*
X400000Y202500D03*
X450000Y200000D03*
X440000Y210000D03*
G54D14*
X380000Y202500D03*
X430000Y200000D03*
G54D15*
X417500Y259700D03*
Y295300D03*
X447500Y259700D03*
X442500D03*
X437500D03*
X432500D03*
X427500D03*
X422500D03*
Y295300D03*
X427500D03*
X432500D03*
X437500D03*
X442500D03*
X447500D03*
X452500Y259700D03*
Y295300D03*
G54D16*
X444094Y330000D03*
Y410000D03*
Y490000D03*
X475906Y280000D03*
X464094D03*
X455906Y330000D03*
Y410000D03*
Y490000D03*
X495906Y230000D03*
X484094D03*
X494094Y260000D03*
X505906D03*
X535906Y600000D03*
X524094D03*
X564094Y270000D03*
Y300000D03*
X575906Y270000D03*
Y300000D03*
G54D17*
X463740Y310000D03*
X456260D03*
G54D18*
X480000Y325300D03*
Y405300D03*
Y485300D03*
X500000Y325300D03*
Y405300D03*
Y485300D03*
G54D19*
X490000Y360000D03*
Y440000D03*
Y520000D03*
M02*
