G04 ================== begin FILE IDENTIFICATION RECORD ==================*
G04 Layout Name:  C:/ORCAD_PROJECTS/RAILROAD/allegro/RAILLROAD.brd*
G04 Film Name:    SILK*
G04 File Format:  Gerber RS274X*
G04 File Origin:  Cadence Allegro 17.2-S055*
G04 Origin Date:  Mon Jul 15 15:27:48 2019*
G04 *
G04 Layer:  MANUFACTURING/AUTOSILK_TOP*
G04 *
G04 Offset:    (0.00 0.00)*
G04 Mirror:    No*
G04 Mode:      Positive*
G04 Rotation:  0*
G04 FullContactRelief:  No*
G04 UndefLineWidth:     0.30*
G04 ================== end FILE IDENTIFICATION RECORD ====================*
%FSLAX25Y25*MOIN*%
%IR0*IPPOS*OFA0.00000B0.00000*MIA0B0*SFA1.00000B1.00000*%
%ADD10C,.02*%
%ADD11C,.0003*%
%ADD12C,.006*%
G75*
%LPD*%
G75*
G54D10*
G01X471500Y582500D02*
G03I-1500J0D01*
G54D11*
G01X263500Y327200D02*
X255500D01*
X263500Y331800D01*
X255500D01*
G01X263500Y339500D02*
Y335500D01*
X255500D01*
Y339500D01*
G01X259367Y337900D02*
Y335500D01*
G01X255500Y343300D02*
X261233D01*
X262434Y343700D01*
X263233Y344500D01*
X263500Y345500D01*
X263233Y346500D01*
X262434Y347300D01*
X261233Y347700D01*
X255500D01*
G01Y353500D02*
X263500D01*
G01X255500Y351200D02*
Y355800D01*
G01X263500Y359500D02*
X255500D01*
Y362000D01*
X255900Y362800D01*
X256433Y363300D01*
X257500Y363500D01*
X258567Y363300D01*
X259233Y362700D01*
X259633Y362000D01*
Y359500D01*
G01Y362000D02*
X263500Y363500D01*
G01Y367000D02*
X255500Y369500D01*
X263500Y372000D01*
G01X260700Y371100D02*
Y367900D01*
G01X255500Y375500D02*
X263500D01*
Y379500D01*
G01Y399500D02*
X255500D01*
X257100Y398300D01*
G01X263500D02*
Y400700D01*
G01X256833Y405600D02*
X256033Y406200D01*
X255633Y406900D01*
X255500Y407700D01*
X255767Y408700D01*
X256433Y409400D01*
X257233Y409600D01*
X258034Y409500D01*
X258700Y409100D01*
X260033Y407100D01*
X260967Y406200D01*
X262300Y405600D01*
X263500Y405400D01*
Y409600D01*
G01X255500Y413000D02*
X263500Y415500D01*
X255500Y418000D01*
G01X260833Y430400D02*
Y432800D01*
G01X259100Y431500D02*
X262567D01*
G01X263500Y437000D02*
X255500Y439500D01*
X263500Y442000D01*
G01X260700Y441100D02*
Y437900D01*
G01X263500Y445500D02*
X255500D01*
Y447900D01*
X255900Y448700D01*
X256833Y449300D01*
X257900Y449500D01*
X258967Y449300D01*
X259767Y448800D01*
X260167Y447900D01*
Y445500D01*
G01X263500Y453500D02*
X255500D01*
Y455900D01*
X255900Y456700D01*
X256833Y457300D01*
X257900Y457500D01*
X258967Y457300D01*
X259767Y456800D01*
X260167Y455900D01*
Y453500D01*
G01X263767Y463500D02*
X263633Y463300D01*
X263367D01*
X263233Y463500D01*
X263367Y463700D01*
X263633D01*
X263767Y463500D01*
G01X256167Y481700D02*
X255767Y481100D01*
X255500Y480400D01*
Y479600D01*
X255900Y478700D01*
X256567Y478000D01*
X257367Y477500D01*
X258700Y477100D01*
X259900Y477000D01*
X261100Y477200D01*
X261900Y477500D01*
X262700Y478100D01*
X263233Y478800D01*
X263500Y479500D01*
Y480200D01*
X263233Y480900D01*
X262833Y481500D01*
X262300Y482000D01*
G01X255500Y485500D02*
X263500D01*
Y489500D01*
G01Y497500D02*
Y493500D01*
X255500D01*
Y497500D01*
G01X259367Y495900D02*
Y493500D01*
G01X263500Y501000D02*
X255500Y503500D01*
X263500Y506000D01*
G01X260700Y505100D02*
Y501900D01*
G01X263500Y509500D02*
X255500D01*
Y512000D01*
X255900Y512800D01*
X256433Y513300D01*
X257500Y513500D01*
X258567Y513300D01*
X259233Y512700D01*
X259633Y512000D01*
Y509500D01*
G01Y512000D02*
X263500Y513500D01*
G01X262434Y537400D02*
X263100Y538200D01*
X263500Y539100D01*
Y539900D01*
X263100Y540700D01*
X262434Y541300D01*
X261500Y541600D01*
X260567Y541400D01*
X259767Y540900D01*
X259233Y540000D01*
X258967Y538800D01*
X258433Y538100D01*
X257500Y537800D01*
X256567Y538000D01*
X255900Y538500D01*
X255500Y539200D01*
Y539900D01*
X255767Y540600D01*
X256433Y541200D01*
G01X255500Y547500D02*
X263500D01*
G01X255500Y545200D02*
Y549800D01*
G01X263500Y555500D02*
X263367Y554700D01*
X262833Y554000D01*
X262033Y553400D01*
X261100Y553000D01*
X260033Y552800D01*
X258967D01*
X257900Y553000D01*
X256967Y553400D01*
X256167Y554000D01*
X255633Y554700D01*
X255500Y555500D01*
X255633Y556300D01*
X256167Y557000D01*
X256967Y557600D01*
X257900Y558000D01*
X258967Y558200D01*
X260033D01*
X261100Y558000D01*
X262033Y557600D01*
X262833Y557000D01*
X263367Y556300D01*
X263500Y555500D01*
G01Y561500D02*
X255500D01*
Y563900D01*
X255900Y564700D01*
X256833Y565300D01*
X257900Y565500D01*
X258967Y565300D01*
X259767Y564800D01*
X260167Y563900D01*
Y561500D01*
G01X283228Y221033D02*
X284148D01*
G01X283650Y221705D02*
Y220362D01*
G01X294472Y266205D02*
X294222Y265826D01*
X294055Y265382D01*
Y264876D01*
X294305Y264306D01*
X294722Y263863D01*
X295222Y263546D01*
X296055Y263293D01*
X296805Y263230D01*
X297555Y263356D01*
X298055Y263546D01*
X298555Y263926D01*
X298888Y264369D01*
X299055Y264812D01*
Y265256D01*
X298888Y265699D01*
X298638Y266079D01*
X298305Y266395D01*
G01X299055Y269910D02*
X294055D01*
X295055Y269151D01*
G01X299055D02*
Y270670D01*
G01X310551Y217635D02*
X315551D01*
Y216052D01*
X315301Y215545D01*
X314968Y215229D01*
X314301Y215102D01*
X313634Y215229D01*
X313218Y215609D01*
X312968Y216052D01*
Y217635D01*
G01Y216052D02*
X310551Y215102D01*
G01Y211271D02*
X315551D01*
X314551Y212030D01*
G01X310551D02*
Y210511D01*
G01Y206173D02*
X315551D01*
X314551Y206932D01*
G01X310551D02*
Y205413D01*
G01X323228Y621033D02*
X324148D01*
G01X323650Y621705D02*
Y620362D01*
G01X330100Y656090D02*
G03X329950Y656260I-335J-144D01*
G01Y652360D02*
G03X330100Y652480I-61J230D01*
G01X329950Y652360D02*
G03X329940Y652330I2J-17D01*
G01D02*
G03X330010Y652300I96J128D01*
G01X330110Y656420D02*
G03X329910Y656390I26J-852D01*
G01D02*
G03X329890Y656330I17J-39D01*
G01D02*
G03X329950Y656260I127J48D01*
G01X326640Y656920D02*
G03X326430Y656720I1084J-1348D01*
G01D02*
G03X326300Y656520I588J-524D01*
G01D02*
G03X326230Y656280I785J-359D01*
G01D02*
G03X326200Y655960I2240J-371D01*
G01D02*
G03X326270Y655490I1667J8D01*
G01D02*
G03X326470Y655130I862J243D01*
G01D02*
G03X326850Y654850I961J906D01*
G01D02*
G03X327490Y654580I2533J5110D01*
G02X328090Y654330I-1750J-5046D01*
G02X328480Y654050I-731J-1430D01*
G02X328700Y653740I-635J-684D01*
G02X328780Y653350I-923J-393D01*
G02X328520Y652820I-669J-1D01*
G02X327850Y652570I-746J976D01*
G02X327040Y652710I-113J1762D01*
G02X326420Y653200I590J1383D01*
G01D02*
G03X326250Y653360I-574J-440D01*
G01D02*
G03X326140Y653340I-46J-60D01*
G01D02*
G03X326090Y653130I322J-188D01*
G01D02*
G03X326140Y652710I4730J350D01*
G01X326230Y652150D01*
X327230Y652170D01*
G01D02*
G03X328190Y652270I-91J5533D01*
G01D02*
G03X328870Y652550I-368J1859D01*
G01D02*
G03X329270Y653000I-641J973D01*
G01D02*
G03X329420Y653610I-1228J625D01*
G01D02*
G03X329350Y654080I-1737J-18D01*
G01D02*
G03X329170Y654410I-738J-188D01*
G01D02*
G03X328770Y654720I-1226J-1169D01*
G01D02*
G03X327940Y655140I-8124J-15023D01*
G02X327150Y655570I4677J9533D01*
G02X326790Y655900I564J976D01*
G02X326730Y656230I325J230D01*
G02X326940Y656610I904J-251D01*
G02X327280Y656840I646J-589D01*
G02X327710Y656910I380J-978D01*
G02X328160Y656790I-82J-1211D01*
G02X328550Y656510I-616J-1269D01*
G01D02*
G03X328890Y656190I9576J9834D01*
G01D02*
G03X329010Y656140I131J145D01*
G01D02*
G03X329080Y656200I4J66D01*
G01D02*
G03X329100Y656470I-2215J300D01*
G01D02*
G03X329050Y656830I-1275J6D01*
G01D02*
G03X328890Y657040I-369J-115D01*
G01D02*
G03X328580Y657150I-400J-636D01*
G01D02*
G03X327970Y657210I-1043J-7474D01*
G01D02*
G03X327500Y657220I-376J-6612D01*
G01D02*
G03X327170Y657180I29J-1624D01*
G01D02*
G03X326910Y657090I211J-1030D01*
G01D02*
G03X326640Y656920I778J-1535D01*
G01X340551Y217635D02*
X345551D01*
Y216052D01*
X345301Y215545D01*
X344968Y215229D01*
X344301Y215102D01*
X343634Y215229D01*
X343218Y215609D01*
X342968Y216052D01*
Y217635D01*
G01Y216052D02*
X340551Y215102D01*
G01Y211271D02*
X345551D01*
X344551Y212030D01*
G01X340551D02*
Y210511D01*
G01X344718Y207376D02*
X345218Y206996D01*
X345468Y206552D01*
X345551Y206046D01*
X345384Y205413D01*
X344968Y204969D01*
X344468Y204843D01*
X343968Y204906D01*
X343551Y205159D01*
X342718Y206426D01*
X342134Y206996D01*
X341301Y207376D01*
X340551Y207502D01*
Y204843D01*
G01X337268Y266222D02*
X337647Y265972D01*
X338091Y265805D01*
X338597D01*
X339167Y266055D01*
X339610Y266472D01*
X339927Y266972D01*
X340180Y267805D01*
X340243Y268555D01*
X340117Y269305D01*
X339927Y269805D01*
X339547Y270305D01*
X339104Y270638D01*
X338661Y270805D01*
X338217D01*
X337774Y270638D01*
X337394Y270388D01*
X337078Y270055D01*
G01X334766Y266638D02*
X334386Y266138D01*
X333942Y265888D01*
X333436Y265805D01*
X332803Y265972D01*
X332359Y266388D01*
X332233Y266888D01*
X332296Y267388D01*
X332549Y267805D01*
X333816Y268638D01*
X334386Y269222D01*
X334766Y270055D01*
X334892Y270805D01*
X332233D01*
G01X355697Y281200D02*
Y286200D01*
X358103D01*
G01X357217Y283783D02*
X355697D01*
G01X360607Y286200D02*
Y282617D01*
X360860Y281867D01*
X361367Y281367D01*
X362000Y281200D01*
X362633Y281367D01*
X363140Y281867D01*
X363393Y282617D01*
Y286200D01*
G01X365770Y281867D02*
X366277Y281450D01*
X366847Y281200D01*
X367353D01*
X367860Y281450D01*
X368240Y281867D01*
X368430Y282450D01*
X368303Y283033D01*
X367987Y283533D01*
X367417Y283867D01*
X366657Y284033D01*
X366213Y284367D01*
X366023Y284950D01*
X366150Y285533D01*
X366467Y285950D01*
X366910Y286200D01*
X367353D01*
X367797Y286033D01*
X368177Y285617D01*
G01X373467Y281200D02*
X370933D01*
Y286200D01*
X373467D01*
G01X372453Y283783D02*
X370933D01*
G01X381007Y281950D02*
X381387Y281533D01*
X381830Y281283D01*
X382400Y281200D01*
X382970Y281367D01*
X383413Y281700D01*
X383730Y282283D01*
X383793Y282950D01*
X383667Y283617D01*
X383350Y284033D01*
X382907Y284367D01*
X382463Y284450D01*
X382020Y284367D01*
X381450Y284033D01*
X381640Y286200D01*
X383350D01*
G01X385917Y281200D02*
X387500Y286200D01*
X389083Y281200D01*
G01X388513Y282950D02*
X386487D01*
G01X355507Y288250D02*
X355887Y287833D01*
X356330Y287583D01*
X356900Y287500D01*
X357470Y287667D01*
X357913Y288000D01*
X358230Y288583D01*
X358293Y289250D01*
X358167Y289917D01*
X357850Y290333D01*
X357407Y290667D01*
X356963Y290750D01*
X356520Y290667D01*
X355950Y290333D01*
X356140Y292500D01*
X357850D01*
G01X361050Y290833D02*
X362950Y287500D01*
G01Y290833D02*
X361050Y287500D01*
G01X365897Y291667D02*
X366277Y292167D01*
X366720Y292417D01*
X367227Y292500D01*
X367860Y292333D01*
X368303Y291917D01*
X368430Y291417D01*
X368367Y290917D01*
X368113Y290500D01*
X366847Y289667D01*
X366277Y289083D01*
X365897Y288250D01*
X365770Y287500D01*
X368430D01*
G01X372200Y292500D02*
X371693Y292333D01*
X371313Y291917D01*
X371060Y291417D01*
X370870Y290750D01*
X370807Y290000D01*
X370870Y289250D01*
X371060Y288583D01*
X371313Y288083D01*
X371693Y287667D01*
X372200Y287500D01*
X372707Y287667D01*
X373087Y288083D01*
X373340Y288583D01*
X373530Y289250D01*
X373593Y290000D01*
X373530Y290750D01*
X373340Y291417D01*
X373087Y291917D01*
X372707Y292333D01*
X372200Y292500D01*
G01X375653Y287500D02*
Y292500D01*
X377300Y288333D01*
X378947Y292500D01*
Y287500D01*
G01X380753D02*
Y292500D01*
X382400Y288333D01*
X384047Y292500D01*
Y287500D01*
G01X340551Y597635D02*
X345551D01*
Y596052D01*
X345301Y595545D01*
X344968Y595229D01*
X344301Y595102D01*
X343634Y595229D01*
X343218Y595609D01*
X342968Y596052D01*
Y597635D01*
G01Y596052D02*
X340551Y595102D01*
G01X341301Y592663D02*
X340884Y592284D01*
X340634Y591840D01*
X340551Y591271D01*
X340718Y590701D01*
X341051Y590257D01*
X341634Y589941D01*
X342301Y589878D01*
X342968Y590004D01*
X343384Y590321D01*
X343718Y590764D01*
X343801Y591207D01*
X343718Y591650D01*
X343384Y592220D01*
X345551Y592030D01*
Y590321D01*
G01X330840Y631000D02*
X331587Y630375D01*
X332427Y630000D01*
X333173D01*
X333920Y630375D01*
X334480Y631000D01*
X334760Y631875D01*
X334573Y632750D01*
X334107Y633500D01*
X333267Y634000D01*
X332147Y634250D01*
X331493Y634750D01*
X331213Y635625D01*
X331400Y636500D01*
X331867Y637125D01*
X332520Y637500D01*
X333173D01*
X333827Y637250D01*
X334387Y636625D01*
G01X340300Y637500D02*
Y630000D01*
G01X338153Y637500D02*
X342447D01*
G01X345467Y630000D02*
X347800Y637500D01*
X350133Y630000D01*
G01X349293Y632625D02*
X346307D01*
G01X355300Y637500D02*
Y630000D01*
G01X353153Y637500D02*
X357447D01*
G01X360747D02*
Y632125D01*
X361120Y631000D01*
X361867Y630250D01*
X362800Y630000D01*
X363733Y630250D01*
X364480Y631000D01*
X364853Y632125D01*
Y637500D01*
G01X368340Y631000D02*
X369087Y630375D01*
X369927Y630000D01*
X370673D01*
X371420Y630375D01*
X371980Y631000D01*
X372260Y631875D01*
X372073Y632750D01*
X371607Y633500D01*
X370767Y634000D01*
X369647Y634250D01*
X368993Y634750D01*
X368713Y635625D01*
X368900Y636500D01*
X369367Y637125D01*
X370020Y637500D01*
X370673D01*
X371327Y637250D01*
X371887Y636625D01*
G01X383433Y637500D02*
Y630000D01*
X387167D01*
G01X394667D02*
X390933D01*
Y637500D01*
X394667D01*
G01X393173Y633875D02*
X390933D01*
G01X398247Y630000D02*
Y637500D01*
X400113D01*
X400860Y637125D01*
X401420Y636625D01*
X401887Y635875D01*
X402260Y635000D01*
X402353Y633750D01*
X402260Y632500D01*
X401887Y631625D01*
X401420Y630875D01*
X400860Y630375D01*
X400113Y630000D01*
X398247D01*
G01X405840Y631000D02*
X406587Y630375D01*
X407427Y630000D01*
X408173D01*
X408920Y630375D01*
X409480Y631000D01*
X409760Y631875D01*
X409573Y632750D01*
X409107Y633500D01*
X408267Y634000D01*
X407147Y634250D01*
X406493Y634750D01*
X406213Y635625D01*
X406400Y636500D01*
X406867Y637125D01*
X407520Y637500D01*
X408173D01*
X408827Y637250D01*
X409387Y636625D01*
G01X351820Y650400D02*
G03X351610Y650760I-1542J-658D01*
G01X351890Y650060D02*
G03X351820Y650400I-789J15D01*
G01X351810Y649740D02*
G03X351890Y650060I-631J328D01*
G01X351580Y649430D02*
G03X351810Y649740I-914J918D01*
G01X351400Y649280D02*
G03X351580Y649430I-942J1314D01*
G01X351200Y649140D02*
G03X351400Y649280I-926J1536D01*
G01X351000Y649050D02*
G03X351200Y649140I-526J1435D01*
G01X350850Y649030D02*
G03X351000Y649050I20J422D01*
G01X350670Y649070D02*
G03X350850Y649030I172J349D01*
G01X350570Y649180D02*
G03X350670Y649070I187J69D01*
G01X350530Y649430D02*
G03X350570Y649180I861J9D01*
G01X350520Y649990D02*
G03X350530Y649430I16829J20D01*
G01Y650620D02*
G03X350520Y649990I22970J-680D01*
G01X350580Y650830D02*
G03X350530Y650620I468J-222D01*
G01X350700Y650930D02*
G03X350580Y650830I40J-170D01*
G01X350980Y650960D02*
G03X350700Y650930I10J-1417D01*
G01X351170Y650940D02*
G03X350980Y650960I-222J-1199D01*
G01X351360Y650900D02*
G03X351170Y650940I-353J-1204D01*
G01X351510Y650830D02*
G03X351360Y650900I-496J-867D01*
G01X351610Y650760D02*
G03X351510Y650830I-215J-201D01*
G01X349550Y651140D02*
G03X349560Y651070I201J-7D01*
G01D02*
G03X349600Y651010I177J74D01*
G01D02*
G03X349650Y650970I124J104D01*
G01D02*
G03X349710Y650960I52J129D01*
G02X349880Y650790I-1J-171D01*
G02Y649120I-81500J-835D01*
G02X349850Y647450I-76620J541D01*
G02X349670Y647200I-282J13D01*
G01D02*
G03Y647170I8J-15D01*
G01D02*
G03X349740Y647140I109J157D01*
G01D02*
G03X349930Y647120I273J1677D01*
G01D02*
G03X350200I135J6510D01*
G01D02*
G03X350460I130J6269D01*
G01D02*
G03X350650Y647140I-83J1697D01*
G01D02*
G03X350720Y647170I-39J187D01*
G01D02*
G03Y647200I-8J15D01*
G02X350640Y647280I57J137D01*
G02X350570Y647470I1018J483D01*
G02X350530Y647740I1820J408D01*
G02X350520Y648070I4110J290D01*
G02X350560Y648690I4887J-4D01*
G02X350720Y648830I161J-23D01*
G02X350970Y648710I6J-307D01*
G02X351420Y648090I-8004J-6282D01*
G01D02*
G03X351810Y647580I3414J2207D01*
G01D02*
G03X352240Y647200I1855J1666D01*
G01D02*
G03X352670Y646990I958J1416D01*
G01D02*
G03X353060Y646960I252J731D01*
G01D02*
G03X353140Y647010I-36J147D01*
G01D02*
G03X353150Y647080I-37J41D01*
G01D02*
G03X353040Y647180I-340J-263D01*
G01D02*
G03X352770Y647350I-3553J-5344D01*
G02X352340Y647710I934J1552D01*
G02X351870Y648310I4449J3969D01*
G02X351540Y648870I4019J2745D01*
G02X351630Y649030I95J52D01*
G01D02*
G03X351890Y649120I4J408D01*
G01D02*
G03X352170Y649410I-1035J1280D01*
G01D02*
G03X352380Y649780I-1448J1067D01*
G01D02*
G03X352450Y650130I-829J348D01*
G01D02*
G03X352340Y650600I-1075J-4D01*
G01D02*
G03X352040Y650940I-747J-357D01*
G01D02*
G03X351500Y651150I-822J-1314D01*
G01D02*
G03X350670Y651250I-1181J-6305D01*
G01D02*
G03X350170Y651270I-742J-12299D01*
G01D02*
G03X349830Y651260I-87J-2844D01*
G01D02*
G03X349610Y651210I181J-1307D01*
G01D02*
G03X349550Y651140I16J-75D01*
G01X346010Y651120D02*
G03X346020Y651060I155J-5D01*
G01D02*
G03X346060Y651010I146J76D01*
G01D02*
G03X346110Y650970I126J106D01*
G01D02*
G03X346170Y650960I55J145D01*
G02X346340Y650790I-1J-171D01*
G02Y649120I-81639J-835D01*
G02X346300Y647450I-76259J991D01*
G02X346130Y647200I-280J8D01*
G01D02*
G03Y647170I4J-15D01*
G01D02*
G03X346440Y647150I581J6594D01*
G01D02*
G03X346890Y647140I470J11002D01*
G01D02*
G03X347460I285J28849D01*
G01D02*
G03X348450Y647170I-1432J63604D01*
G01D02*
G03X348790Y647220I-45J1488D01*
G01D02*
G03X348960Y647340I-71J281D01*
G01D02*
G03X349040Y647580I-504J301D01*
G01X349100Y647980D01*
X348750Y647610D01*
G02X348530Y647420I-1068J1014D01*
G02X348320Y647320I-404J577D01*
G02X348050Y647280I-286J999D01*
G02X347650Y647290I-83J4667D01*
G01X346890Y647330D01*
X346850Y648180D01*
X346800Y649030D01*
X347600D01*
G02X348000Y649010I-76J-5521D01*
G02X348270Y648960I-102J-1304D01*
G02X348450Y648880I-159J-601D01*
G02X348570Y648740I-251J-337D01*
G01D02*
G03X348660Y648630I536J347D01*
G01D02*
G03X348710Y648640I22J22D01*
G01D02*
G03X348730Y648750I-241J101D01*
G01D02*
G03X348740Y649080I-11013J499D01*
G01D02*
G03Y649460I-14155J190D01*
G01D02*
G03X348710Y649560I-174J2D01*
G01D02*
G03X348640Y649570I-40J-29D01*
G01D02*
G03X348490Y649430I1051J-1276D01*
G02X348330Y649320I-414J431D01*
G02X348120Y649250I-404J861D01*
G02X347870Y649210I-335J1289D01*
G02X347560Y649220I-63J2860D01*
G01X346890Y649270D01*
Y650880D01*
X347660Y650930D01*
G02X348040Y650940I343J-5825D01*
G02X348280Y650910I-11J-1063D01*
G02X348430Y650840I-100J-411D01*
G02X348520Y650730I-139J-206D01*
G01D02*
G03X348640Y650520I716J270D01*
G01D02*
G03X348770Y650490I85J74D01*
G01D02*
G03X348880Y650610I-61J166D01*
G01D02*
G03X348910Y650880I-1126J262D01*
G01D02*
G03X348860Y651110I-570J-4D01*
G01D02*
G03X348720Y651230I-197J-88D01*
G01D02*
G03X348410Y651270I-310J-1184D01*
G01D02*
G03X347460Y651280I-1149J-64030D01*
G01D02*
G03X346870Y651270I-22J-16101D01*
G01D02*
G03X346410Y651240I175J-6228D01*
G01D02*
G03X346070Y651190I692J-5889D01*
G01D02*
G03X346010Y651120I11J-71D01*
G01X341500Y651150D02*
G03X341510Y651090I179J-1D01*
G01D02*
G03X341540Y651020I505J175D01*
G01D02*
G03X341590Y650940I613J327D01*
G01D02*
G03X341650Y650870I498J366D01*
G02X341730Y650750I-307J-292D01*
G02X341970Y650210I-47116J-21264D01*
G02X342250Y649560I-30211J-13399D01*
G02X342550Y648820I-49907J-20663D01*
G01D02*
G03X342850Y648100I34074J13775D01*
G01D02*
G03X343120Y647490I17992J7599D01*
G01D02*
G03X343360Y646970I41965J19053D01*
G01D02*
G03X343430Y646930I67J36D01*
G01D02*
G03X343500Y646970I2J77D01*
G01D02*
G03X343720Y647420I-28379J14153D01*
G01D02*
G03X343960Y647950I-13625J6489D01*
G01D02*
G03X344230Y648580I-25983J11508D01*
G02X344510Y649250I41595J-16989D01*
G02X344800Y649900I37498J-16340D01*
G02X345060Y650450I33511J-15505D01*
G02X345210Y650760I3816J-1655D01*
G01X345520Y651280D01*
X344960D01*
G01D02*
G03X344740Y651270I-18J-2019D01*
G01D02*
G03X344560Y651230I142J-1066D01*
G01D02*
G03X344440Y651180I175J-590D01*
G01D02*
G03X344400Y651120I30J-63D01*
G01D02*
G03X344410Y651060I155J-5D01*
G01D02*
G03X344450Y651010I146J76D01*
G01D02*
G03X344500Y650970I126J106D01*
G01D02*
G03X344560Y650960I55J145D01*
G02X344620Y650940I-11J-132D01*
G02X344670Y650900I-73J-143D01*
G02X344710Y650840I-143J-138D01*
G02X344720Y650760I-242J-71D01*
G02X344660Y650420I-953J-7D01*
G02X344190Y649230I-81596J31539D01*
G02X343690Y647970I-198581J78073D01*
G02X343580Y647900I-107J47D01*
G02X343480Y647970I1J108D01*
G02X342980Y649230I221199J88507D01*
G02X342530Y650430I88375J33825D01*
G02X342470Y650760I884J331D01*
G02X342490Y650840I170J0D01*
G02X342550Y650940I530J-250D01*
G02X342640Y651030I541J-451D01*
G02X342750Y651110I519J-598D01*
G01D02*
G03X342830Y651180I-115J212D01*
G01D02*
G03X342810Y651240I-33J22D01*
G01D02*
G03X342660Y651270I-174J-479D01*
G01D02*
G03X342270I-195J-13428D01*
G01D02*
G03X341970I-150J-4735D01*
G01D02*
G03X341730Y651240I169J-2328D01*
G01D02*
G03X341540Y651200I324J-2011D01*
G01D02*
G03X341500Y651150I12J-51D01*
G01X339920Y650860D02*
G03X339770Y651060I-440J-174D01*
G01X340000Y650560D02*
G03X339920Y650860I-1254J-174D01*
G01X340040Y650040D02*
G03X340000Y650560I-4353J-73D01*
G01X340050Y649060D02*
G03X340040Y650040I-47790J2D01*
G01Y648220D02*
G03X340050Y649060I-34054J825D01*
G01X340000Y647670D02*
G03X340040Y648220I-6599J756D01*
G01X339950Y647310D02*
G03X340000Y647670I-3443J662D01*
G01X339850Y647200D02*
G03X339950Y647310I-54J149D01*
G01X339850Y647200D02*
G03Y647170I8J-15D01*
G01D02*
G03X339920Y647140I109J157D01*
G01D02*
G03X340110Y647120I273J1677D01*
G01D02*
G03X340370I130J6269D01*
G01D02*
G03X340640I135J6510D01*
G01D02*
G03X340830Y647140I-83J1697D01*
G01D02*
G03X340900Y647170I-39J187D01*
G01D02*
G03Y647200I-8J15D01*
G02X340800Y647310I54J149D01*
G02X340740Y647670I3438J758D01*
G02X340710Y648220I6604J636D01*
G02X340700Y649060I34054J825D01*
G02X340710Y650040I47790J2D01*
G02X340750Y650560I4353J-73D01*
G02X340830Y650860I1254J-174D01*
G02X340980Y651060I440J-174D01*
G01D02*
G03X341080Y651170I-257J334D01*
G01D02*
G03X341060Y651230I-34J22D01*
G01D02*
G03X340880Y651260I-183J-544D01*
G01D02*
G03X340370Y651270I-726J-24005D01*
G01D02*
G03X339860Y651260I216J-24015D01*
G01D02*
G03X339690Y651230I8J-543D01*
G01D02*
G03X339670Y651170I14J-38D01*
G01D02*
G03X339770Y651060I357J224D01*
G01X335190Y650450D02*
G03X334950Y650990I-918J-85D01*
G01X335240Y649150D02*
G03X335190Y650450I-16434J19D01*
G01X335200Y647850D02*
G03X335240Y649150I-16912J1171D01*
G01X334970Y647350D02*
G03X335200Y647850I-557J559D01*
G01X334970Y647350D02*
G03X334850Y647200I759J-730D01*
G01D02*
G03X334870Y647140I37J-21D01*
G01D02*
G03X334990Y647110I120J226D01*
G01D02*
G03X335410I210J17018D01*
G01D02*
G03X335660Y647120I-116J6020D01*
G01D02*
G03X335820Y647150I-118J1074D01*
G01D02*
G03X335840Y647180I-11J29D01*
G01D02*
G03X335820Y647200I-22J-2D01*
G02X335590Y647370I108J387D01*
G02X335460Y647700I770J494D01*
G02X335400Y648270I2933J597D01*
G02X335410Y649270I23955J261D01*
G01X335460Y650550D01*
X338680Y646890D01*
X338730Y648800D01*
G02X338760Y649770I41581J-801D01*
G02X338820Y650370I6577J-355D01*
G02X338900Y650760I2660J-343D01*
G02X339040Y650990I575J-192D01*
G01D02*
G03X339170Y651160I-1009J906D01*
G01D02*
G03X339150Y651240I-48J31D01*
G01D02*
G03X339020Y651270I-123J-238D01*
G01D02*
G03X338540Y651280I-703J-22227D01*
G01D02*
G03X338230Y651270I-2J-4758D01*
G01D02*
G03X338010Y651240I62J-1274D01*
G01D02*
G03X337890Y651180I112J-373D01*
G01D02*
G03X337880Y651120I26J-35D01*
G01D02*
G03X337930Y651060I194J111D01*
G01D02*
G03X338020Y651010I279J396D01*
G01D02*
G03X338110Y650970I239J418D01*
G01D02*
G03X338210Y650960I90J397D01*
G02X338330Y650880I-3J-135D01*
G02X338390Y650660I-725J-316D01*
G02X338430Y650240I-3179J-515D01*
G02X338440Y649470I-32056J-801D01*
G02X338430Y648660I-48097J189D01*
G02X338400Y648310I-2319J22D01*
G02X338330Y648210I-140J23D01*
G02X338230Y648230I-37J73D01*
G02X338090Y648380I10161J9624D01*
G01X337750Y648770D01*
X337340Y649240D01*
X336900Y649750D01*
G01D02*
G03X336030Y650740I-90757J-78879D01*
G01D02*
G03X335680Y651080I-2450J-2172D01*
G01D02*
G03X335410Y651230I-503J-588D01*
G01D02*
G03X335080Y651280I-337J-1112D01*
G01D02*
G03X334840Y651270I85J-4920D01*
G01D02*
G03X334780Y651240I-6J-62D01*
G01D02*
G03X334790Y651170I63J-27D01*
G01D02*
G03X334950Y650990I4055J3443D01*
G01X330720D02*
G03X330580Y651110I-350J-267D01*
G01X330750Y650850D02*
G03X330720Y650990I-196J31D01*
G01X330690Y650620D02*
G03X330750Y650850I-763J322D01*
G01X330460Y650110D02*
G03X330690Y650620I-17381J8145D01*
G01X330460Y650110D02*
G03X330150Y649200I4294J-1971D01*
G01D02*
G03X330100Y648390I2364J-552D01*
G01D02*
G03X330310Y647730I1663J166D01*
G01D02*
G03X330760Y647260I1162J662D01*
G01D02*
G03X331290Y647080I660J1072D01*
G01D02*
G03X332590Y646970I2955J27184D01*
G01D02*
G03X333940Y646900I3171J48095D01*
G01D02*
G03X334090Y647050I3J147D01*
G01D02*
G03X334080Y647120I-144J15D01*
G01D02*
G03X334020Y647200I-340J-192D01*
G01D02*
G03X333940Y647260I-299J-315D01*
G01D02*
G03X333850Y647310I-270J-379D01*
G02X333730Y647440I83J197D01*
G02X333660Y647720I1262J464D01*
G02X333620Y648210I4300J598D01*
G02X333610Y649080I38815J881D01*
G02X333620Y650100I54520J-24D01*
G02X333670Y650540I2654J-79D01*
G02X333770Y650800I695J-118D01*
G02X333970Y651010I648J-417D01*
G01D02*
G03X334160Y651160I-990J1449D01*
G01D02*
G03X334150Y651230I-28J32D01*
G01D02*
G03X334000Y651260I-151J-365D01*
G01D02*
G03X333370Y651270I-1093J-49038D01*
G01D02*
G03X332750I-310J-48069D01*
G01D02*
G03X332600Y651240I4J-408D01*
G01D02*
G03X332590Y651180I14J-33D01*
G01D02*
G03X332770Y651030I1128J1171D01*
G02X332970Y650820I-437J-616D01*
G02X333070Y650560I-608J-383D01*
G02X333120Y650110I-2706J-528D01*
G02X333130Y649100I-53825J-1038D01*
G01Y647420D01*
X332320D01*
G02X331880Y647430I-104J5096D01*
G02X331580Y647500I140J1278D01*
G02X331340Y647620I294J887D01*
G02X331090Y647830I1102J1566D01*
G02X330860Y648090I1701J1736D01*
G02X330760Y648310I533J375D01*
G02X330730Y648570I818J226D01*
G02X330760Y649010I5676J-166D01*
G02X330900Y649700I4664J-587D01*
G02X331130Y650330I3764J-1017D01*
G02X331420Y650830I2737J-1254D01*
G02X331740Y651090I683J-514D01*
G01D02*
G03X331850Y651170I-184J369D01*
G01D02*
G03X331840Y651230I-23J27D01*
G01D02*
G03X331670Y651260I-194J-600D01*
G01D02*
G03X331200I-235J-22403D01*
G01D02*
G03X330770I-215J-14474D01*
G01D02*
G03X330570Y651230I35J-912D01*
G01D02*
G03X330530Y651180I6J-46D01*
G01D02*
G03X330580Y651110I104J21D01*
G01X346840Y656100D02*
G03X346690Y656260I-338J-167D01*
G01X346920Y655840D02*
G03X346840Y656100I-926J-143D01*
G01X346970Y655390D02*
G03X346920Y655840I-3282J-137D01*
G01X346980Y654530D02*
G03X346970Y655390I-36666J4D01*
G01X346960Y653760D02*
G03X346980Y654530I-23183J987D01*
G01X346920Y653230D02*
G03X346960Y653760I-5477J680D01*
G01X346840Y652860D02*
G03X346920Y653230I-2607J757D01*
G01X346720Y652600D02*
G03X346840Y652860I-693J478D01*
G01X346720Y652600D02*
G03X346580Y652380I2493J-1741D01*
G01D02*
G03X346590Y652290I60J-39D01*
G01D02*
G03X346700Y652250I110J131D01*
G01D02*
G03X347130I215J16435D01*
G01D02*
G03X347570I220J23986D01*
G01D02*
G03X347660Y652290I-6J134D01*
G01D02*
G03Y652350I-31J30D01*
G01D02*
G03X347460Y652570I-4160J-3581D01*
G02X347290Y652800I627J642D01*
G02X347200Y653080I959J463D01*
G02X347150Y653510I2728J535D01*
G02X347140Y654260I23171J684D01*
G02X347150Y654780I15330J-35D01*
G02X347170Y655230I8005J-130D01*
G02X347210Y655580I11394J-1125D01*
G02X347260Y655630I53J-3D01*
G02X347340Y655590I-6J-112D01*
G02X347800Y655100I-66298J-62700D01*
G02X348320Y654530I-23770J-22207D01*
G02X348910Y653840I-45728J-39698D01*
G01X350440Y652060D01*
X350520Y654090D01*
G02X350570Y655120I50334J-1927D01*
G02X350630Y655730I7095J-390D01*
G02X350720Y656110I2877J-481D01*
G02X350840Y656280I283J-72D01*
G01D02*
G03X350870Y656340I-38J56D01*
G01D02*
G03X350830Y656390I-53J-1D01*
G01D02*
G03X350640Y656420I-230J-837D01*
G01D02*
G03X350280I-180J-9602D01*
G01D02*
G03X349980Y656410I95J-7340D01*
G01D02*
G03X349780Y656380I158J-1736D01*
G01D02*
G03X349710Y656350I26J-157D01*
G01D02*
G03Y656320I8J-15D01*
G02X350020Y656120I-273J-764D01*
G02X350220Y655800I-626J-614D01*
G02X350330Y655290I-1879J-672D01*
G02X350360Y654470I-11274J-823D01*
G02X350350Y653990I-13315J37D01*
G02X350320Y653580I-6789J291D01*
G02X350280Y653260I-9002J963D01*
G02X350240Y653220I-41J1D01*
G02X350160Y653260I12J124D01*
G02X349750Y653700I54959J51623D01*
G02X349290Y654220I21628J19596D01*
G02X348760Y654830I39907J35209D01*
G01D02*
G03X347980Y655730I-42552J-36090D01*
G01D02*
G03X347550Y656150I-3336J-2985D01*
G01D02*
G03X347230Y656360I-899J-1021D01*
G01D02*
G03X346900Y656430I-322J-705D01*
G01D02*
G03X346630Y656420I205J-9196D01*
G01D02*
G03X346560Y656390I11J-121D01*
G01D02*
G03Y656350I15J-20D01*
G01D02*
G03X346690Y656260I907J1171D01*
G01X343570Y655680D02*
G03X343340Y656180I-784J-58D01*
G01X343610Y654340D02*
G03X343570Y655680I-19063J102D01*
G01Y653000D02*
G03X343610Y654340I-19023J1238D01*
G01X343340Y652500D02*
G03X343570Y653000I-554J558D01*
G01X343340Y652500D02*
G03X343300Y652370I116J-107D01*
G01D02*
G03X343370Y652290I89J7D01*
G01D02*
G03X343700Y652250I385J1798D01*
G01D02*
G03X344630I465J72103D01*
G01X346170D01*
Y652690D01*
G01D02*
G03X346160Y652940I-8712J-223D01*
G01D02*
G03X346130Y653000I-89J-7D01*
G01D02*
G03X346090I-20J-17D01*
G01D02*
G03X346000Y652850I1975J-1287D01*
G02X345870Y652720I-344J214D01*
G02X345680Y652630I-372J541D01*
G02X345390Y652580I-392J1406D01*
G02X344950Y652570I-381J7072D01*
G01X344080D01*
Y654180D01*
X344880D01*
G02X345190Y654170I22J-4119D01*
G02X345450Y654130I-197J-2147D01*
G02X345640Y654080I-302J-1534D01*
G02X345690Y654020I-17J-65D01*
G01D02*
G03X345700Y653960I155J-5D01*
G01D02*
G03X345730Y653900I167J46D01*
G01D02*
G03X345790Y653870I106J137D01*
G01D02*
G03X345850Y653860I55J145D01*
G01D02*
G03X345910Y653890I2J70D01*
G01D02*
G03X345960Y654000I-412J254D01*
G01D02*
G03X346000Y654150I-746J279D01*
G01D02*
G03X346010Y654340I-1495J174D01*
G01D02*
G03X346000Y654520I-1426J11D01*
G01D02*
G03X345960Y654680I-837J-124D01*
G01D02*
G03X345910Y654790I-462J-144D01*
G01D02*
G03X345850Y654820I-58J-40D01*
G01D02*
G03X345790Y654810I-5J-155D01*
G01D02*
G03X345730Y654780I46J-167D01*
G01D02*
G03X345700Y654720I137J-106D01*
G01D02*
G03X345690Y654660I145J-55D01*
G02X345640Y654600I-67J5D01*
G02X345450Y654550I-492J1484D01*
G02X345190Y654510I-457J2107D01*
G02X344880Y654500I-288J4109D01*
G01X344080D01*
Y656110D01*
X344870D01*
G02X345260Y656100I60J-5276D01*
G02X345530Y656050I-101J-1299D01*
G02X345710Y655960I-191J-607D01*
G02X345840Y655830I-225J-355D01*
G01D02*
G03X345900Y655730I937J494D01*
G01D02*
G03X345950Y655680I140J90D01*
G01D02*
G03X345990Y655690I14J30D01*
G01D02*
G03X346000Y655740I-64J39D01*
G02X346010Y655830I645J-26D01*
G02X346040Y655940I1804J-433D01*
G02X346070Y656070I2165J-431D01*
G02X346110Y656180I1426J-456D01*
G01D02*
G03X346080Y656310I-112J43D01*
G01D02*
G03X345920Y656390I-214J-228D01*
G01D02*
G03X345530Y656420I-388J-2490D01*
G01D02*
G03X344650Y656430I-1020J-51078D01*
G01D02*
G03X343710I-470J-73576D01*
G01D02*
G03X343380Y656390I58J-1862D01*
G01D02*
G03X343300Y656310I15J-95D01*
G01D02*
G03X343340Y656180I153J-24D01*
G01X342130Y655610D02*
G03X342020Y655760I-820J-486D01*
G01X342220Y655410D02*
G03X342130Y655610I-1512J-560D01*
G01X342290Y655210D02*
G03X342220Y655410I-1485J-407D01*
G01X342310Y655040D02*
G03X342290Y655210I-736J0D01*
G01X342200Y654650D02*
G03X342310Y655040I-686J404D01*
G01X341900Y654260D02*
G03X342200Y654650I-1244J1267D01*
G01X341500Y653960D02*
G03X341900Y654260I-875J1584D01*
G01X341110Y653860D02*
G03X341500Y653960I-1J812D01*
G01X340870Y653890D02*
G03X341110Y653860I216J753D01*
G01X340750Y654000D02*
G03X340870Y653890I173J69D01*
G01X340700Y654250D02*
G03X340750Y654000I768J24D01*
G01X340700Y654960D02*
G03Y654250I30770J-355D01*
G01Y655390D02*
G03Y654960I10968J-215D01*
G01X340730Y655770D02*
G03X340700Y655390I6791J-727D01*
G01X340770Y656080D02*
G03X340730Y655770I7821J-1167D01*
G01X340810Y656170D02*
G03X340770Y656080I113J-104D01*
G01X341020Y656250D02*
G03X340810Y656170I-19J-264D01*
G01X341380D02*
G03X341020Y656250I-518J-1480D01*
G01X341750Y656000D02*
G03X341380Y656170I-946J-1570D01*
G01X342020Y655760D02*
G03X341750Y656000I-877J-715D01*
G01X340080Y656100D02*
G03X339930Y656270I-349J-157D01*
G01X340160Y655810D02*
G03X340080Y656100I-1114J-151D01*
G01X340200Y655310D02*
G03X340160Y655810I-4040J-72D01*
G01X340210Y654330D02*
G03X340200Y655310I-49650J-17D01*
G01Y653220D02*
G03X340210Y654330I-74727J1228D01*
G01X340160Y652790D02*
G03X340200Y653220I-2471J447D01*
G01X340050Y652560D02*
G03X340160Y652790I-394J330D01*
G01X339850Y652410D02*
G03X340050Y652560I-193J466D01*
G01X339850Y652410D02*
G03X339760Y652350I82J-220D01*
G01D02*
G03X339770Y652300I20J-22D01*
G01D02*
G03X339970Y652270I239J912D01*
G01D02*
G03X340450I240J22089D01*
G01D02*
G03X340940I245J22549D01*
G01D02*
G03X341140Y652300I-39J942D01*
G01D02*
G03X341150Y652350I-10J28D01*
G01D02*
G03X341060Y652410I-172J-160D01*
G02X340880Y652510I267J692D01*
G02X340770Y652650I258J316D01*
G02X340710Y652840I513J266D01*
G02X340700Y653130I2355J226D01*
G02X340710Y653470I3998J53D01*
G02X340770Y653610I226J-14D01*
G02X340910Y653680I165J-154D01*
G02X341250Y653700I386J-3660D01*
G01D02*
G03X341810Y653800I21J1499D01*
G01D02*
G03X342310Y654120I-674J1604D01*
G01D02*
G03X342670Y654560I-1029J1209D01*
G01D02*
G03X342790Y655060I-948J492D01*
G01D02*
G03X342770Y655290I-1204J11D01*
G01D02*
G03X342700Y655550I-2006J-401D01*
G01D02*
G03X342600Y655790I-1851J-631D01*
G01D02*
G03X342480Y655970I-861J-444D01*
G01D02*
G03X342270Y656170I-796J-626D01*
G01D02*
G03X342010Y656290I-482J-703D01*
G01D02*
G03X341630Y656350I-505J-1966D01*
G01D02*
G03X340910Y656390I-1483J-20200D01*
G01D02*
G03X340290Y656410I-1263J-29542D01*
G01D02*
G03X339980Y656400I-86J-2138D01*
G01D02*
G03X339910Y656340I19J-92D01*
G01D02*
G03X339930Y656270I50J-24D01*
G01X338680Y655690D02*
G03X338530Y655880I-1105J-718D01*
G01X338810Y655470D02*
G03X338680Y655690I-1542J-763D01*
G01X338900Y655250D02*
G03X338810Y655470I-1471J-473D01*
G01X338920Y655060D02*
G03X338900Y655250I-641J29D01*
G01X338820Y654660D02*
G03X338920Y655060I-739J397D01*
G01X338520Y654260D02*
G03X338820Y654660I-1239J1242D01*
G01X338120Y653960D02*
G03X338520Y654260I-840J1537D01*
G01X337720Y653860D02*
G03X338120Y653960I5J830D01*
G01X337490Y653890D02*
G03X337720Y653860I211J721D01*
G01X337370Y654000D02*
G03X337490Y653890I173J69D01*
G01X337320Y654250D02*
G03X337370Y654000I768J24D01*
G01X337310Y654960D02*
G03X337320Y654250I30775J78D01*
G01Y655390D02*
G03X337310Y654960I11827J-490D01*
G01X337350Y655770D02*
G03X337320Y655390I7246J-763D01*
G01X337380Y656080D02*
G03X337350Y655770I8777J-1006D01*
G01X337420Y656160D02*
G03X337380Y656080I96J-98D01*
G01X337630Y656270D02*
G03X337420Y656160I54J-359D01*
G01X337920Y656250D02*
G03X337630Y656270I-198J-755D01*
G01X338230Y656110D02*
G03X337920Y656250I-616J-951D01*
G01X338530Y655880D02*
G03X338230Y656110I-1147J-1185D01*
G01X336700Y656090D02*
G03X336550Y656260I-340J-149D01*
G01X336780Y655810D02*
G03X336700Y656090I-1047J-148D01*
G01X336820Y655320D02*
G03X336780Y655810I-3901J-72D01*
G01X336830Y654340D02*
G03X336820Y655320I-49826J-18D01*
G01Y653360D02*
G03X336830Y654340I-49816J998D01*
G01X336780Y652870D02*
G03X336820Y653360I-3861J562D01*
G01X336700Y652580D02*
G03X336780Y652870I-1003J433D01*
G01X336550Y652420D02*
G03X336700Y652580I-174J314D01*
G01X336550Y652420D02*
G03X336490Y652350I67J-118D01*
G01D02*
G03X336520Y652290I42J-16D01*
G01D02*
G03X336710Y652260I222J788D01*
G01D02*
G03X337150I220J15945D01*
G01D02*
G03X337610Y652270I-240J21643D01*
G01D02*
G03X337780Y652300I-33J682D01*
G01D02*
G03X337790Y652340I-6J23D01*
G01D02*
G03X337680Y652410I-271J-304D01*
G02X337500Y652510I267J692D01*
G02X337390Y652650I258J316D01*
G02X337330Y652840I513J266D01*
G02X337310Y653130I2350J308D01*
G02X337330Y653460I3950J-74D01*
G02X337390Y653610I261J-17D01*
G02X337520Y653680I156J-134D01*
G02X337810Y653700I307J-2335D01*
G01D02*
G03X338260Y653750I31J1772D01*
G01D02*
G03X338730Y653930I-675J2467D01*
G01D02*
G03X339110Y654170I-970J1957D01*
G01D02*
G03X339310Y654430I-365J488D01*
G01D02*
G03X339350Y654560I-693J284D01*
G01D02*
G03X339380Y654770I-3478J604D01*
G01D02*
G03X339400Y655000I-3867J452D01*
G01D02*
G03X339410Y655230I-3523J268D01*
G01D02*
G03X339280Y655770I-1256J-17D01*
G01D02*
G03X338940Y656150I-804J-377D01*
G01D02*
G03X338340Y656370I-838J-1358D01*
G01D02*
G03X337410Y656430I-883J-6454D01*
G01D02*
G03X336860Y656420I133J-22449D01*
G01D02*
G03X336580Y656390I42J-1714D01*
G01D02*
G03X336520Y656330I18J-78D01*
G01D02*
G03X336550Y656260I61J-15D01*
G01X330180Y655800D02*
G03X330100Y656090I-1107J-149D01*
G01X330220Y655290D02*
G03X330180Y655800I-4202J-73D01*
G01X330230Y654260D02*
G03X330220Y655290I-55836J-27D01*
G01Y653210D02*
G03X330230Y654260I-64131J1136D01*
G01X330180Y652730D02*
G03X330220Y653210I-3655J546D01*
G01X330100Y652480D02*
G03X330180Y652730I-690J359D01*
G01X330010Y652300D02*
G03X330230Y652290I220J2412D01*
G01D02*
G03X330550Y652280I489J10519D01*
G01D02*
G03X330870Y652290I-169J10529D01*
G01D02*
G03X331090Y652300I0J2422D01*
G01D02*
G03X331160Y652330I-26J158D01*
G01D02*
G03X331150Y652360I-12J13D01*
G02X331020Y652440I72J263D01*
G02X330930Y652590I276J268D01*
G02X330890Y652850I1073J298D01*
G02X330870Y653300I8600J608D01*
G01Y654180D01*
X333290D01*
Y653380D01*
G02X333270Y652990I-5281J75D01*
G02X333230Y652730I-1246J59D01*
G02X333140Y652540I-638J186D01*
G02X333010Y652420I-333J230D01*
G01D02*
G03X332950Y652350I67J-118D01*
G01D02*
G03X332970Y652290I37J-21D01*
G01D02*
G03X333170Y652260I227J830D01*
G01D02*
G03X333610I220J15945D01*
G01D02*
G03X334070Y652270I-262J22647D01*
G01D02*
G03X334240Y652300I-29J663D01*
G01D02*
G03X334250Y652340I-5J23D01*
G01D02*
G03X334130Y652410I-301J-377D01*
G02X333920Y652560I196J496D01*
G02X333820Y652790I367J296D01*
G02X333790Y653220I2442J386D01*
G02X333810Y654380I87691J-932D01*
G01X333850Y656190D01*
X334980D01*
X335030Y654420D01*
G02X335040Y653430I-51513J-1015D01*
G02X335010Y652930I-4044J-8D01*
G02X334940Y652640I-1107J114D01*
G02X334790Y652450I-410J169D01*
G01D02*
G03X334700Y652350I200J-270D01*
G01D02*
G03X334720Y652280I38J-27D01*
G01D02*
G03X334900Y652260I156J582D01*
G01D02*
G03X335390I245J21813D01*
G01D02*
G03X335840Y652270I-248J21295D01*
G01D02*
G03X336010Y652290I9J656D01*
G01D02*
G03X336020Y652340I-8J28D01*
G01D02*
G03X335910Y652410I-283J-323D01*
G02X335700Y652560I187J484D01*
G02X335590Y652790I395J330D01*
G02X335550Y653220I2486J448D01*
G02X335540Y654340I76297J1241D01*
G02X335550Y655450I75626J-126D01*
G02X335590Y655890I2585J-13D01*
G02X335700Y656120I505J-100D01*
G02X335910Y656270I397J-334D01*
G01D02*
G03Y656330I-14J30D01*
G01D02*
G03X335750Y656380I-203J-368D01*
G01D02*
G03X335290Y656410I-582J-5376D01*
G01D02*
G03X334500Y656420I-937J-42817D01*
G01D02*
G03X333660Y656410I126J-45884D01*
G01D02*
G03X333200Y656380I100J-5071D01*
G01D02*
G03X333010Y656330I50J-577D01*
G01D02*
G03Y656260I19J-35D01*
G02X333140Y656140I-203J-350D01*
G02X333230Y655950I-548J-376D01*
G02X333270Y655690I-1206J-319D01*
G02X333290Y655300I-5261J-465D01*
G01Y654500D01*
X330870D01*
Y655300D01*
G02X330890Y655690I5281J-75D01*
G02X330940Y655950I1251J-106D01*
G02X331020Y656140I633J-155D01*
G02X331150Y656260I333J-230D01*
G01D02*
G03X331220Y656330I-62J132D01*
G01D02*
G03X331190Y656390I-42J16D01*
G01D02*
G03X330990Y656420I-226J-822D01*
G01D02*
G03X330550I-220J-15904D01*
G01D02*
G03X330110I-220J-15904D01*
G01X352010Y656360D02*
G03X351500Y655950I504J-1149D01*
G01D02*
G03X351330Y655380I724J-526D01*
G01D02*
G03X351550Y654800I976J39D01*
G01D02*
G03X352100Y654390I1120J929D01*
G02X352880Y654040I-8825J-20711D01*
G02X353260Y653800I-849J-1765D01*
G02X353450Y653560I-437J-541D01*
G02X353550Y653240I-848J-441D01*
G02Y652980I-1600J-130D01*
G02X353500Y652820I-311J9D01*
G02X353360Y652710I-284J218D01*
G02X353100Y652590I-1065J1966D01*
G02X352670Y652510I-474J1355D01*
G02X352220Y652560I-52J1578D01*
G02X351820Y652740I402J1427D01*
G02X351520Y653010I579J945D01*
G01D02*
G03X351410Y653140I-1134J-848D01*
G01D02*
G03X351360I-25J-22D01*
G01D02*
G03X351330Y653060I104J-85D01*
G01D02*
G03X351320Y652760I9433J-465D01*
G01D02*
G03X351340Y652460I2526J18D01*
G01D02*
G03X351410Y652320I220J23D01*
G01D02*
G03X351560Y652250I186J204D01*
G01D02*
G03X351930Y652220I572J4756D01*
G01D02*
G03X352790Y652230I340J7738D01*
G01D02*
G03X353400Y652360I-139J2149D01*
G01D02*
G03X353790Y652620I-390J1008D01*
G01D02*
G03X354000Y653000I-597J578D01*
G01D02*
G03X354050Y653540I-1746J434D01*
G01D02*
G03X353910Y653950I-793J-42D01*
G01D02*
G03X353530Y654300I-1023J-729D01*
G01D02*
G03X352840Y654670I-3297J-5321D01*
G02X352220Y654960I8001J17914D01*
G02X351960Y655140I501J1002D01*
G02X351850Y655320I234J267D01*
G02X351840Y655580I746J159D01*
G02X352000Y655980I796J-86D01*
G02X352330Y656210I514J-386D01*
G02X352780I225J-805D01*
G02X353250Y655980I-387J-1385D01*
G01D02*
G03X353660Y655690I12976J17911D01*
G01D02*
G03X353770Y655660I96J134D01*
G01D02*
G03X353830Y655720I1J59D01*
G01D02*
G03X353780Y656030I-4105J-503D01*
G01D02*
G03X353720Y656220I-931J-189D01*
G01D02*
G03X353630Y656340I-314J-142D01*
G01D02*
G03X353510Y656410I-206J-216D01*
G01D02*
G03X353330Y656430I-166J-672D01*
G02X353170Y656440I64J2310D01*
G02X353010Y656450I94J2786D01*
G02X352850Y656480I433J2751D01*
G02X352750Y656510I150J682D01*
G01D02*
G03X352630Y656520I-83J-272D01*
G01D02*
G03X352440Y656490I173J-1712D01*
G01D02*
G03X352230Y656440I356J-1960D01*
G01D02*
G03X352010Y656360I696J-2256D01*
G01X339980Y660070D02*
G03X342070Y659070I15200J29084D01*
G01D02*
G03X343820Y658440I5503J12540D01*
G01D02*
G03X346510Y657900I4916J17518D01*
G01D02*
G03X349120Y657800I1879J14920D01*
G01D02*
G03X351590Y658160I-725J13629D01*
G01D02*
G03X353850Y658950I-2656J11225D01*
G01D02*
G03X355760Y660200I-3494J7422D01*
G01X358560Y651060D02*
G03X358570Y651130I-374J89D01*
G01X358540Y650940D02*
G03X358560Y651060I-2181J425D01*
G01X358500Y650810D02*
G03X358540Y650940I-2368J800D01*
G01X358460Y650690D02*
G03X358500Y650810I-2078J759D01*
G01X358460Y650690D02*
G03X358400Y650500I5524J-1849D01*
G01D02*
G03X358410Y650480I13J-6D01*
G01D02*
G03X358460Y650490I13J67D01*
G01D02*
G03X358680Y650680I-14176J16637D01*
G02X358840Y650780I475J-582D01*
G02X359050Y650880I813J-1437D01*
G02X359290Y650940I553J-1703D01*
G02X359510Y650960I216J-1156D01*
G01X360020D01*
Y649120D01*
G02X360010Y648060I-65098J84D01*
G02X359970Y647580I-3709J67D01*
G02X359890Y647320I-802J104D01*
G02X359740Y647200I-211J110D01*
G01D02*
G03X359730Y647180I0J-12D01*
G01D02*
G03X359800Y647150I96J128D01*
G01D02*
G03X360020Y647140I220J2412D01*
G01X360420Y651280D02*
G03X359710Y651270I-21J-23710D01*
G01D02*
G03X359110Y651240I303J-12079D01*
G01D02*
G03X358620Y651190I1817J-20236D01*
G01D02*
G03X358570Y651130I8J-58D01*
G01X356990Y650860D02*
G03X356840Y651060I-440J-174D01*
G01X357070Y650560D02*
G03X356990Y650860I-1254J-174D01*
G01X357110Y650040D02*
G03X357070Y650560I-4353J-73D01*
G01X357120Y649060D02*
G03X357110Y650040I-47790J2D01*
G01Y648220D02*
G03X357120Y649060I-34054J825D01*
G01X357070Y647670D02*
G03X357110Y648220I-6599J756D01*
G01X357020Y647310D02*
G03X357070Y647670I-3443J662D01*
G01X356920Y647200D02*
G03X357020Y647310I-54J149D01*
G01X356920Y647200D02*
G03Y647170I8J-15D01*
G01D02*
G03X356990Y647140I109J157D01*
G01D02*
G03X357180Y647120I273J1677D01*
G01D02*
G03X357440I130J6269D01*
G01D02*
G03X357710I135J6510D01*
G01D02*
G03X357890Y647140I-88J1609D01*
G01D02*
G03X357970Y647170I-34J212D01*
G01D02*
G03Y647200I-8J15D01*
G02X357870Y647310I54J149D01*
G02X357810Y647670I3438J758D01*
G02X357770Y648220I6599J756D01*
G02X357760Y649060I34054J825D01*
G02X357770Y650040I47790J2D01*
G02X357820Y650560I4358J-157D01*
G02X357900Y650860I1254J-174D01*
G02X358050Y651060I440J-174D01*
G01D02*
G03X358150Y651170I-257J334D01*
G01D02*
G03X358120Y651230I-39J18D01*
G01D02*
G03X357950Y651260I-178J-513D01*
G01D02*
G03X357440Y651270I-726J-24005D01*
G01D02*
G03X356930Y651260I216J-24015D01*
G01D02*
G03X356760Y651230I8J-543D01*
G01D02*
G03X356740Y651170I14J-38D01*
G01D02*
G03X356840Y651060I357J224D01*
G01X354020Y651110D02*
G03X353750Y650890I567J-971D01*
G01D02*
G03X353570Y650590I839J-708D01*
G01D02*
G03X353480Y650250I1002J-447D01*
G01D02*
G03X353510Y649900I1101J-82D01*
G01D02*
G03X353620Y649670I660J175D01*
G01D02*
G03X353810Y649470I794J564D01*
G01D02*
G03X354130Y649270I1236J1622D01*
G01D02*
G03X354630Y649020I4550J8476D01*
G02X355350Y648650I-2624J-5991D01*
G02X355710Y648290I-589J-949D01*
G02X355770Y647930I-396J-251D01*
G02X355570Y647550I-841J200D01*
G02X355390Y647390I-793J711D01*
G02X355200Y647310I-317J487D01*
G02X354970Y647280I-220J786D01*
G02X354630Y647310I129J3402D01*
G02X354370Y647360I227J1883D01*
G02X354120Y647450I534J1876D01*
G02X353910Y647560I656J1508D01*
G02X353790Y647670I222J362D01*
G01D02*
G03X353610Y647850I-696J-516D01*
G01D02*
G03X353480Y647840I-59J-80D01*
G01D02*
G03X353420Y647680I145J-145D01*
G01D02*
G03X353480Y647360I1897J190D01*
G01D02*
G03X353570Y647150I706J178D01*
G01D02*
G03X353710Y647040I225J143D01*
G01D02*
G03X353960Y646990I282J762D01*
G01D02*
G03X354560I300J17405D01*
G01D02*
G03X355120Y647020I-254J9980D01*
G01D02*
G03X355440Y647090I-113J1283D01*
G01D02*
G03X355680Y647220I-241J732D01*
G01D02*
G03X355930Y647460I-1255J1558D01*
G01D02*
G03X356250Y648050I-1285J1079D01*
G01D02*
G03X356220Y648590I-710J231D01*
G01D02*
G03X355810Y649060I-999J-458D01*
G01D02*
G03X355010Y649450I-2190J-3476D01*
G02X354420Y649720I1216J3437D01*
G02X354050Y650050I627J1075D01*
G02X353940Y650390I458J336D01*
G02X354060Y650710I499J-5D01*
G02X354350Y650900I448J-367D01*
G02X354790Y650950I367J-1270D01*
G02X355250Y650840I-121J-1524D01*
G02X355620Y650610I-417J-1084D01*
G01D02*
G03X355860Y650390I9287J9890D01*
G01D02*
G03X355940Y650350I102J104D01*
G01D02*
G03X355980Y650390I0J40D01*
G01D02*
G03X355990Y650570I-1667J183D01*
G01D02*
G03X355980Y650700I-991J-11D01*
G01D02*
G03X355950Y650830I-1180J-204D01*
G01D02*
G03X355920Y650950I-1056J-200D01*
G01D02*
G03X355870Y651040I-360J-141D01*
G01D02*
G03X355630Y651180I-286J-215D01*
G01D02*
G03X355010Y651240I-916J-6228D01*
G01D02*
G03X354380Y651230I-226J-5603D01*
G01D02*
G03X354020Y651110I69J-808D01*
G01X358280Y655980D02*
G03X358150Y656180I-499J-182D01*
G01X358350Y655680D02*
G03X358280Y655980I-1678J-233D01*
G01X358400Y655220D02*
G03X358350Y655680I-3981J-200D01*
G01X358410Y654510D02*
G03X358400Y655220I-20684J64D01*
G01X358410Y654510D02*
G03X358420Y653740I22874J-88D01*
G01D02*
G03X358470Y653280I3218J117D01*
G01D02*
G03X358570Y652960I1398J261D01*
G01D02*
G03X358740Y652680I1187J529D01*
G01D02*
G03X359360Y652240I1047J819D01*
G01D02*
G03X360210Y652130I695J2030D01*
G01X360970Y656340D02*
G03X361110Y656270I391J606D01*
G02X361310Y656130I-216J-522D01*
G02X361410Y655930I-322J-286D01*
G02X361460Y655570I-1714J-422D01*
G02X361470Y654700I-40718J-903D01*
G02X361420Y653560I-14653J72D01*
G02X361250Y652970I-1448J98D01*
G02X360890Y652670I-571J320D01*
G02X360290Y652570I-593J1708D01*
G02X359580Y652680I13J2431D01*
G02X359160Y653000I221J726D01*
G02X358950Y653630I1224J758D01*
G02X358890Y654800I12331J1219D01*
G02X358900Y655490I21559J33D01*
G02X358950Y655880I2468J-118D01*
G02X359030Y656110I773J-140D01*
G02X359170Y656260I341J-177D01*
G01D02*
G03X359250Y656340I-129J209D01*
G01D02*
G03X359240Y656390I-24J21D01*
G01D02*
G03X359070Y656420I-186J-559D01*
G01D02*
G03X358680Y656430I-541J-13471D01*
G01D02*
G03X358210I-235J-20262D01*
G01D02*
G03X358070Y656390I22J-344D01*
G01D02*
G03X358040Y656320I16J-48D01*
G01D02*
G03X358150Y656180I646J394D01*
G01X356900Y653910D02*
G03X356740Y654160I-455J-115D01*
G01X356950Y653470D02*
G03X356900Y653910I-2044J-9D01*
G01X356910Y653030D02*
G03X356950Y653470I-2001J404D01*
G01X356770Y652760D02*
G03X356910Y653030I-378J367D01*
G01X356650Y652690D02*
G03X356770Y652760I-118J341D01*
G01X356470Y652620D02*
G03X356650Y652690I-420J1347D01*
G01X356260Y652580D02*
G03X356470Y652620I-203J1635D01*
G01X356040Y652570D02*
G03X356260Y652580I34J1685D01*
G01X356040Y652570D02*
X355510D01*
Y654540D01*
X356020Y654440D01*
G02X356230Y654390I-445J-2336D01*
G02X356440Y654310I-868J-2593D01*
G02X356620Y654230I-859J-2176D01*
G02X356740Y654160I-233J-537D01*
G01X356690Y655780D02*
G03X356490Y655970I-1487J-1365D01*
G01X356780Y655630D02*
G03X356690Y655780I-353J-110D01*
G01X356780Y655460D02*
G03Y655630I-350J85D01*
G01X356710Y655200D02*
G03X356780Y655460I-1881J646D01*
G01X356610Y654970D02*
G03X356710Y655200I-1150J637D01*
G01X356480Y654830D02*
G03X356610Y654970I-280J390D01*
G01X356300Y654740D02*
G03X356480Y654830I-142J510D01*
G01X356030Y654690D02*
G03X356300Y654740I-170J1672D01*
G01X356030Y654690D02*
X355510Y654640D01*
Y655460D01*
G02X355520Y655900I9396J7D01*
G02X355560Y656120I723J-18D01*
G02X355660Y656230I199J-80D01*
G02X355810Y656270I152J-270D01*
G02X355960Y656250I8J-514D01*
G02X356140Y656180I-467J-1467D01*
G02X356330Y656080I-732J-1621D01*
G02X356490Y655970I-712J-1207D01*
G01X354730Y656090D02*
G03X354580Y656260I-342J-150D01*
G01X354810Y655810D02*
G03X354730Y656090I-1040J-146D01*
G01X354860Y655330D02*
G03X354810Y655810I-3784J-152D01*
G01X354870Y654360D02*
G03X354860Y655330I-48289J-13D01*
G01X354850Y653600D02*
G03X354870Y654360I-24928J1036D01*
G01X354820Y653020D02*
G03X354850Y653600I-8315J721D01*
G01X354760Y652610D02*
G03X354820Y653020I-5600J1029D01*
G01X354670Y652440D02*
G03X354760Y652610I-224J227D01*
G01X354670Y652440D02*
G03X354660Y652350I49J-51D01*
G01D02*
G03X354760Y652290I124J94D01*
G01D02*
G03X355060Y652250I385J1739D01*
G01D02*
G03X355650I295J22871D01*
G01D02*
G03X356310Y652260I88J15952D01*
G01D02*
G03X356680Y652310I-56J1811D01*
G01D02*
G03X356950Y652430I-228J877D01*
G01D02*
G03X357210Y652640I-866J1339D01*
G01D02*
G03X357500Y653040I-1126J1122D01*
G01D02*
G03X357590Y653440I-730J374D01*
G01D02*
G03X357470Y653840I-825J-29D01*
G01D02*
G03X357160Y654200I-1253J-766D01*
G02X356890Y654440I4530J5368D01*
G02X356820Y654570I184J183D01*
G02X356840Y654680I126J34D01*
G02X357000Y654860I1335J-1026D01*
G01D02*
G03X357110Y655000I-539J537D01*
G01D02*
G03X357200Y655180I-1102J663D01*
G01D02*
G03X357260Y655370I-1178J476D01*
G01D02*
G03X357280Y655540I-692J168D01*
G01D02*
G03X357160Y655940I-733J-2D01*
G01D02*
G03X356840Y656220I-662J-434D01*
G01D02*
G03X356280Y656380I-751J-1568D01*
G01D02*
G03X355430Y656430I-853J-7249D01*
G01D02*
G03X354880Y656420I130J-22290D01*
G01D02*
G03X354610Y656390I44J-1625D01*
G01D02*
G03X354550Y656330I16J-76D01*
G01D02*
G03X354580Y656260I63J-15D01*
G01X356640Y666710D02*
G03X354210Y666040I4441J-20849D01*
G01D02*
G03X352190Y665140I4074J-11861D01*
G01D02*
G03X350530Y663990I5030J-9033D01*
G01D02*
G03X349140Y662560I6314J-7528D01*
G01X348360Y661570D01*
X347990Y662050D01*
G01D02*
G03X347620Y662390I-1193J-927D01*
G01D02*
G03X347070Y662680I-1960J-3052D01*
G01D02*
G03X346350Y662920I-2028J-4884D01*
G01D02*
G03X345490Y663110I-2506J-9300D01*
G01D02*
G03X344360Y663210I-1222J-7376D01*
G01D02*
G03X342500Y663200I-661J-50079D01*
G01D02*
G03X340580Y663120I1049J-48262D01*
G01D02*
G03X339160Y662960I994J-15206D01*
G01D02*
G03X337830Y662690I2441J-15436D01*
G01D02*
G03X335900Y662180I16776J-67391D01*
G01D02*
G03X333860Y661610I78248J-283981D01*
G01D02*
G03X333830Y661470I26J-79D01*
G01D02*
G03X333880Y661460I35J46D01*
G01D02*
G03X334480Y661540I-19040J145092D01*
G01D02*
G03X335160Y661640I-5117J37155D01*
G01D02*
G03X335960Y661770I-11041J70474D01*
G02X338050Y662030I4236J-25520D01*
G02X340240Y662140I2613J-30160D01*
G02X342170Y662100I364J-29018D01*
G02X343190Y661860I-161J-2970D01*
G02X343440Y661750I-3023J-7209D01*
G02X343540Y661680I-219J-419D01*
G02X343530Y661650I-11J-13D01*
G02X343430I-50J367D01*
G01D02*
G03X342470Y661790I-1976J-10186D01*
G01D02*
G03X341360Y661850I-1508J-17596D01*
G01D02*
G03X340270Y661840I-387J-17232D01*
G01D02*
G03X339340Y661760I315J-9113D01*
G01D02*
G03X338840Y661690I3089J-23887D01*
G01D02*
G03X338410Y661610I2343J-13787D01*
G01D02*
G03X338050Y661530I4947J-23112D01*
G01D02*
G03X337980Y661500I15J-133D01*
G01D02*
G03X338020Y661130I161J-170D01*
G01D02*
G03X339980Y660070I30120J53351D01*
G01X355760Y660200D02*
G03X357160Y661890I-4573J5213D01*
G01D02*
G03X357930Y663880I-5611J3315D01*
G01D02*
G03X358010Y666010I-6393J1307D01*
G01D02*
G03X357910Y666630I-7182J-840D01*
G01D02*
G03X357750Y666830I-289J-67D01*
G01D02*
G03X357470Y666870I-200J-403D01*
G01D02*
G03X356640Y666710I3593J-20871D01*
G01X333530Y668310D02*
G03X333660Y667630I6282J848D01*
G01D02*
G03X333900Y666750I17845J4394D01*
G01D02*
G03X334170Y665910I26447J8037D01*
G01D02*
G03X334330Y665640I654J205D01*
G01D02*
G03X334500Y665650I80J86D01*
G01D02*
G03X335000Y666230I-10722J9749D01*
G01D02*
G03X335470Y666850I-6978J5778D01*
G01D02*
G03X335700Y667320I-1632J1090D01*
G01D02*
G03X335760Y668010I-1298J460D01*
G01D02*
G03X335460Y668610I-1174J-212D01*
G01D02*
G03X334840Y669010I-1104J-1031D01*
G01D02*
G03X334010Y669150I-834J-2412D01*
G01X333420D01*
X333530Y668310D01*
G01X335160Y670100D02*
G03X334810Y669910I7276J-13820D01*
G01D02*
G03X334520Y669740I3713J-6667D01*
G01D02*
G03X334280Y669600I6712J-11783D01*
G01D02*
G03Y669560I15J-20D01*
G01D02*
G03X334380Y669530I81J89D01*
G01D02*
G03X335850Y669760I-98348J633384D01*
G01D02*
G03X337280Y669990I-57083J359470D01*
G01D02*
G03X337460Y670070I-79J420D01*
G01D02*
G03X337470Y670100I-17J22D01*
G01D02*
G03X337440Y670170I-405J-132D01*
G01D02*
G03X337390Y670260I-620J-286D01*
G01D02*
G03X337320Y670360I-1119J-709D01*
G01D02*
G03X337000Y670550I-432J-364D01*
G01D02*
G03X336510Y670570I-306J-1482D01*
G01D02*
G03X335890Y670420I325J-2701D01*
G01D02*
G03X335160Y670100I2235J-6092D01*
G01X341920Y671650D02*
G03X341180Y671360I4037J-11390D01*
G01D02*
G03X340660Y671090I1465J-3456D01*
G01D02*
G03Y671000I24J-45D01*
G01D02*
G03X340860Y670990I115J286D01*
G02X341090Y671030I458J-1955D01*
G02X341520Y671090I2974J-19742D01*
G02X342020Y671140I2402J-21498D01*
G02X342550Y671180I2159J-25076D01*
G01D02*
G03X343700Y671270I-4623J66465D01*
G01D02*
G03X344070Y671360I-119J1294D01*
G01D02*
G03X344130Y671510I-38J102D01*
G01D02*
G03X343940Y671740I-662J-353D01*
G01D02*
G03X343590Y671960I-1015J-1227D01*
G01D02*
G03X343250Y672020I-296J-683D01*
G01D02*
G03X342800Y671950I46J-1775D01*
G01D02*
G03X341920Y671650I7466J-23340D01*
G01X333940Y671370D02*
G03X333820Y671060I4452J-1902D01*
G01D02*
G03X333710Y670710I7379J-2511D01*
G01D02*
G03X333620Y670360I7324J-2070D01*
G01D02*
G03X333560Y670080I2952J-779D01*
G01D02*
G03X333550Y669620I1920J-272D01*
G01D02*
G03X333700Y669480I150J11D01*
G01D02*
G03X334000Y669600I-22J490D01*
G01D02*
G03X334570Y670090I-6335J7946D01*
G01D02*
G03X335010Y670620I-2151J2233D01*
G01D02*
G03X335230Y671140I-1171J802D01*
G01D02*
G03X335180Y671580I-770J135D01*
G01D02*
G03X334910Y671890I-564J-219D01*
G01D02*
G03X334570Y672020I-782J-1535D01*
G01D02*
G03X334350Y672000I-85J-281D01*
G01D02*
G03X334160Y671810I227J-417D01*
G01D02*
G03X333940Y671370I4246J-2398D01*
G01X335780Y673270D02*
G03X335580Y673170I1570J-3390D01*
G01D02*
G03X335350Y673040I2927J-5447D01*
G01D02*
G03X335140Y672910I2904J-4926D01*
G01D02*
G03X334980Y672800I1137J-1825D01*
G01D02*
G03X334800Y672660I2700J-3658D01*
G01D02*
G03X334810Y672630I11J-13D01*
G01D02*
G03X334900Y672640I20J231D01*
G01D02*
G03X335320Y672780I-14783J45050D01*
G02X335630Y672870I1438J-4375D01*
G02X336030Y672970I2973J-11042D01*
G02X336440Y673050I2441J-11418D01*
G02X336810Y673110I1309J-6899D01*
G01D02*
G03X337120Y673160I-575J4549D01*
G01D02*
G03X337360Y673230I-433J1930D01*
G01D02*
G03X337530Y673300I-364J1126D01*
G01D02*
G03X337540Y673360I-23J35D01*
G01D02*
G03X337340Y673480I-217J-136D01*
G01D02*
G03X336820Y673490I-341J-4222D01*
G01D02*
G03X336250Y673420I211J-4077D01*
G01D02*
G03X335780Y673270I408J-2089D01*
G01X340320Y674150D02*
X339870Y673860D01*
X341050Y673950D01*
G01D02*
G03X341910Y674010I-4648J72813D01*
G01D02*
G03X342180Y674060I-105J1321D01*
G01D02*
G03X342260Y674150I-30J108D01*
G01D02*
G03X342230Y674300I-221J34D01*
G01D02*
G03X341990Y674440I-258J-166D01*
G01D02*
G03X341400Y674450I-361J-3902D01*
G01D02*
G03X340780Y674350I302J-3842D01*
G01D02*
G03X340320Y674150I366J-1470D01*
G01X337800Y675330D02*
X337230Y675070D01*
X337750Y674930D01*
G02X338140Y674740I-348J-1210D01*
G02X338350Y674450I-328J-459D01*
G02Y674080I-605J-185D01*
G02X338150Y673640I-1675J496D01*
G01X337840Y673150D01*
X338220Y672770D01*
G02X338510Y672320I-871J-880D01*
G02X338610Y671750I-1518J-560D01*
G02X338500Y671140I-1929J33D01*
G02X338200Y670540I-2414J832D01*
G01D02*
G03X338050Y670310I14698J-9750D01*
G01D02*
G03X337920Y670100I8795J-5590D01*
G01D02*
G03X337810Y669930I17338J-11339D01*
G01D02*
G03X337800Y669890I66J-38D01*
G01D02*
G03X337810Y669870I19J-3D01*
G01D02*
G03X337940Y669820I1386J3410D01*
G01D02*
G03X338100Y669780I721J2543D01*
G01D02*
G03X338290Y669740I1124J4868D01*
G02X339030Y669380I-315J-1588D01*
G02X339590Y668660I-1514J-1756D01*
G02X339840Y667760I-2243J-1108D01*
G02X339740Y666840I-2281J-218D01*
G01X339560Y666300D01*
X338070Y666220D01*
G01D02*
G03X337430Y666160I784J-11803D01*
G01D02*
G03X336800Y666080I1103J-11205D01*
G01D02*
G03X336250Y665970I1580J-9329D01*
G01D02*
G03X335860Y665850I588J-2604D01*
G01D02*
G03X335180Y665500I1709J-4155D01*
G01D02*
G03X333990Y664750I22469J-36970D01*
G01D02*
G03X332750Y663920I71872J-108717D01*
G01D02*
G03X332640Y663730I124J-198D01*
G01D02*
G03X332670Y663700I31J1D01*
G01D02*
G03X332810I70J1625D01*
G01D02*
G03X332990Y663710I-14J1879D01*
G01D02*
G03X333210Y663750I-604J3946D01*
G02X333620Y663810I1102J-6100D01*
G02X335470Y664030I126976J-1059862D01*
G02X337640Y664280I68971J-589125D01*
G02X340110Y664560I112643J-982641D01*
G01D02*
G03X342610Y664850I-28742J258698D01*
G01D02*
G03X344760Y665130I-17688J144214D01*
G01D02*
G03X346570Y665380I-31798J236894D01*
G01D02*
G03X346990Y665490I-215J1679D01*
G01D02*
G03X347760Y665970I-1221J2816D01*
G01D02*
G03X348050Y666530I-509J619D01*
G01D02*
G03X347820Y667040I-597J38D01*
G01D02*
G03X347110Y667390I-1219J-1577D01*
G01D02*
G03X346140Y667460I-670J-2524D01*
G01D02*
G03X344760Y667220I1162J-10768D01*
G01D02*
G03X342890Y666660I5055J-20281D01*
G01D02*
G03X340320Y665720I25547J-73831D01*
G01X339230Y665300D01*
X339960Y666140D01*
G01D02*
G03X340760Y667250I-5339J4691D01*
G01D02*
G03X341120Y668270I-2481J1449D01*
G01D02*
G03X341020Y669150I-1764J245D01*
G01D02*
G03X340520Y669870I-1615J-588D01*
G01D02*
G03X340250Y670060I-1389J-1687D01*
G01D02*
G03X339990Y670190I-756J-1188D01*
G01D02*
G03X339700Y670260I-489J-1389D01*
G01D02*
G03X339360Y670280I-314J-2439D01*
G01X338690D01*
X339530Y670850D01*
G01D02*
G03X340260Y671500I-2045J3032D01*
G01D02*
G03X340490Y672140I-725J622D01*
G01D02*
G03X340230Y672740I-849J-12D01*
G01D02*
G03X339490Y673250I-1952J-2041D01*
G01X338900Y673530D01*
X339230Y673890D01*
G01D02*
G03X339480Y674260I-927J896D01*
G01D02*
G03X339560Y674670I-920J392D01*
G01D02*
G03X339460Y675050I-861J-23D01*
G01D02*
G03X339210Y675340I-712J-361D01*
G01D02*
G03X338890Y675520I-983J-1374D01*
G01D02*
G03X338610Y675570I-262J-656D01*
G01D02*
G03X338270Y675520I-14J-1086D01*
G01D02*
G03X337800Y675330I1756J-5021D01*
G01X351530Y671190D02*
X352210Y670760D01*
X352900Y670340D01*
X353510Y669960D01*
G01D02*
G03X353900Y669720I43849J70817D01*
G02X354210Y669530I-5991J-10123D01*
G02X354340Y669420I-387J-590D01*
G02X354330Y669380I-16J-17D01*
G02X354220I-55J270D01*
G01D02*
G03X353480Y669510I-1406J-5833D01*
G01D02*
G03X352510Y669590I-1840J-16388D01*
G01D02*
G03X351610Y669610I-993J-24438D01*
G01D02*
G03X351560Y669510I-4J-60D01*
G01D02*
G03X351780Y669360I474J459D01*
G01D02*
G03X353810Y668530I274322J668035D01*
G01D02*
G03X355690Y667770I86827J212076D01*
G01D02*
G03X356440Y667520I2723J6920D01*
G02X356430Y667500I-7J-9D01*
G02X355950Y667480I-1655J33942D01*
G02X355310Y667460I-1350J32965D01*
G02X354500I-405J80993D01*
G01D02*
G03X353310Y667440I289J-52617D01*
G01D02*
G03X352590Y667390I166J-7596D01*
G01D02*
G03X352050Y667290I420J-3774D01*
G01D02*
G03X351480Y667100I1290J-4820D01*
G02X351140Y666960I-35046J84628D01*
G02X350850Y666840I-18828J45091D01*
G01X350590Y666740D01*
G02X350570I-10J53D01*
G02X350560Y666750I2J12D01*
G02X350520Y666890I14485J4214D01*
G02X350480Y667060I5501J1384D01*
G02X350430Y667260I10615J2760D01*
G01D02*
G03X350180Y668060I-4317J-910D01*
G01D02*
G03X349760Y668850I-5112J-2211D01*
G01D02*
G03X349150Y669690I-6716J-4235D01*
G01D02*
G03X348270Y670680I-15516J-12906D01*
G02X347770Y671210I23072J22267D01*
G02X347420Y671620I7103J6418D01*
G02X347260Y671840I1438J1214D01*
G02X347300Y671870I24J10D01*
G01D02*
G03X348770Y670980I84330J137627D01*
G01D02*
G03X349770Y670410I17324J29231D01*
G01D02*
G03X350510Y670010I22406J40567D01*
G01D02*
G03X350640Y670030I51J98D01*
G01D02*
G03X350660Y670110I-57J57D01*
G01D02*
G03X350570Y670370I-4646J-1463D01*
G01D02*
G03X350440Y670690I-4234J-1534D01*
G01D02*
G03X350270Y671050I-7341J-3247D01*
G02X349850Y671870I335379J172297D01*
G02X349750Y672090I2988J1491D01*
G02X349740Y672180I164J64D01*
G02X349780Y672210I37J-8D01*
G02X349850Y672190I-2J-140D01*
G02X350330Y671910I-62427J-107569D01*
G02X350890Y671580I-21157J-36543D01*
G02X351530Y671190I-39299J-65211D01*
G01X347620Y672390D02*
G03X347480Y672580I-30226J-22125D01*
G01X347620Y672370D02*
G03Y672390I-11J10D01*
G01X347600Y672370D02*
G03X347620I10J11D01*
G01X347420Y672510D02*
G03X347600Y672370I22310J28498D01*
G01X347310Y672600D02*
G03X347420Y672510I1864J2166D01*
G01X347220Y672690D02*
G03X347310Y672600I1320J1230D01*
G01X347150Y672760D02*
G03X347220Y672690I1303J1233D01*
G01X347140Y672800D02*
G03X347150Y672760I57J-7D01*
G01X347170Y672840D02*
G03X347140Y672800I14J-42D01*
G01X347230Y672840D02*
G03X347170I-30J-58D01*
G01X347340Y672750D02*
G03X347230Y672840I-396J-372D01*
G01X347480Y672580D02*
G03X347340Y672750I-2472J-1893D01*
G01X345890Y673830D02*
G03X345390Y674200I-18400J-24341D01*
G01X346350Y673480D02*
G03X345890Y673830I-13724J-17560D01*
G01X346720Y673180D02*
G03X346350Y673480I-14702J-17754D01*
G01X346860Y673030D02*
G03X346720Y673180I-782J-589D01*
G01X346840Y673010D02*
G03X346860Y673030I6J14D01*
G01X346740Y673040D02*
G03X346840Y673010I145J301D01*
G01X346500Y673190D02*
G03X346740Y673040I1952J2856D01*
G01X346170Y673420D02*
G03X346500Y673190I7889J10967D01*
G01X346170Y673420D02*
X345790Y673690D01*
X345380Y673980D01*
X345000Y674250D01*
X344720Y674450D01*
G02X344230Y674810I28244J38957D01*
G02X344010Y674980I1569J2258D01*
G02X343950Y675070I132J153D01*
G02X343990Y675110I35J5D01*
G02X344080Y675080I-7J-170D01*
G02X344450Y674840I-18004J-28161D01*
G02X344900Y674550I-10044J-16079D01*
G02X345390Y674200I-18374J-26242D01*
G01X341210Y676260D02*
G03X341140Y676190I119J-189D01*
G01D02*
G03X341150Y676130I42J-24D01*
G01D02*
G03X341240Y676080I146J157D01*
G01D02*
G03X341450Y676030I791J2855D01*
G02X341660Y675970I-258J-1300D01*
G02X341930Y675850I-1529J-3805D01*
G02X342220Y675710I-1833J-4168D01*
G02X342470Y675560I-1537J-2844D01*
G02X342780Y675320I-1999J-2902D01*
G02X342930Y675120I-446J-491D01*
G02X343010Y674880I-591J-330D01*
G02X343030Y674480I-3691J-385D01*
G01D02*
G03X343050Y674070I4286J4D01*
G01D02*
G03X343130Y673850I502J58D01*
G01D02*
G03X343290Y673690I420J260D01*
G01D02*
G03X343660Y673490I2351J3907D01*
G02X344340Y673110I-3677J-7378D01*
G02X344690Y672800I-605J-1035D01*
G02X344840Y672420I-650J-476D01*
G02Y671870I-2558J-275D01*
G01D02*
G03X344810Y671390I8769J-789D01*
G01D02*
G03X344860Y671190I372J-13D01*
G01D02*
G03X345000Y671070I242J140D01*
G01D02*
G03X345380Y670940I1678J4284D01*
G02X346110Y670610I-896J-2955D01*
G02X347000Y669990I-5115J-8292D01*
G02X347830Y669270I-6025J-7784D01*
G02X348390Y668580I-2971J-2984D01*
G02X348740Y667940I-3528J-2345D01*
G02X348890Y667380I-1586J-725D01*
G02X348830Y666840I-1470J-110D01*
G02X348580Y666280I-2305J693D01*
G01D02*
G03X348460Y666060I3071J-1818D01*
G01D02*
G03X348370Y665870I1729J-935D01*
G01D02*
G03X348320Y665710I1580J-582D01*
G01D02*
G03X348330Y665650I56J-21D01*
G01D02*
G03X348410Y665620I74J75D01*
G01D02*
G03X348740Y665640I-593J12523D01*
G01D02*
G03X349130Y665690I-859J8245D01*
G01D02*
G03X349590Y665750I-1691J14761D01*
G01D02*
G03X351180Y666030I-9822J60428D01*
G01D02*
G03X354200Y666610I-128810J678851D01*
G01X357610Y667270D01*
G01D02*
G03X357750Y667330I-60J334D01*
G01D02*
G03X357760Y667380I-28J32D01*
G01D02*
G03X357620Y667710I-23212J-9653D01*
G01D02*
G03X357450Y668100I-10443J-4320D01*
G01D02*
G03X357230Y668550I-19657J-9331D01*
G01D02*
G03X355450Y671150I-9889J-4861D01*
G01D02*
G03X352850Y673390I-11236J-10413D01*
G01D02*
G03X349670Y675110I-9659J-14057D01*
G01D02*
G03X346130Y676160I-6989J-17071D01*
G01D02*
G03X344910Y676310I-1900J-10417D01*
G01D02*
G03X343290Y676390I-2395J-32059D01*
G01D02*
G03X341680Y676400I-1144J-54639D01*
G01D02*
G03X341210Y676260I10J-893D01*
G01X335650Y676290D02*
G03X335610Y676230I109J-116D01*
G01D02*
G03X335570Y676100I1106J-411D01*
G01D02*
G03X335550Y675950I1332J-254D01*
G01D02*
G03X335540Y675790I1599J-180D01*
G01D02*
G03X335550Y675590I1727J-14D01*
G01D02*
G03X335600Y675500I151J25D01*
G01D02*
G03X335680Y675480I60J68D01*
G01D02*
G03X335820Y675520I-105J632D01*
G02X335990Y675590I1559J-3545D01*
G02X336330Y675710I16698J-46768D01*
G02X336730Y675860I18682J-49211D01*
G02X337150Y676010I21589J-59786D01*
G01X338200Y676370D01*
X336980Y676390D01*
G01D02*
G03X336500Y676380I62J-14501D01*
G01D02*
G03X336080Y676360I203J-8680D01*
G01D02*
G03X335740Y676330I817J-11197D01*
G01D02*
G03X335650Y676290I11J-146D01*
G01X339520Y677030D02*
G03X339580Y676880I656J176D01*
G01D02*
G03X339670Y676790I205J115D01*
G01D02*
G03X339790Y676760I114J202D01*
G01D02*
G03X339950Y676780I-7J702D01*
G02X340140Y676820I766J-3169D01*
G02X340450Y676880I4394J-21871D01*
G02X340810Y676930I3619J-24736D01*
G02X341180Y676990I4372J-25791D01*
G01X342060Y677110D01*
X341340Y677230D01*
G01D02*
G03X341020Y677270I-1259J-8773D01*
G01D02*
G03X340650Y677310I-1780J-14732D01*
G01D02*
G03X340300Y677340I-1361J-13824D01*
G01D02*
G03X340030Y677350I-330J-5256D01*
G01D02*
G03X339690I-170J-5758D01*
G01D02*
G03X339550Y677310I3J-277D01*
G01D02*
G03X339500Y677210I66J-95D01*
G01D02*
G03X339520Y677030I725J-11D01*
G01X358980Y667400D02*
G03X358680Y667350I468J-3734D01*
G01D02*
G03X358410Y667280I482J-2415D01*
G01D02*
G03X358200Y667200I615J-1929D01*
G01D02*
G03X358130Y667120I56J-120D01*
G01D02*
G03X358190Y667040I61J-17D01*
G01D02*
G03X358470Y667050I92J1362D01*
G01D02*
G03X359030Y667150I-1068J7596D01*
G01D02*
G03X360260Y667430I-31470J141087D01*
G01X360170Y667500D02*
G03X359660Y667470I203J-7800D01*
G01D02*
G03X358980Y667400I2184J-24553D01*
G01X386183Y199850D02*
Y204850D01*
X387767D01*
X388273Y204600D01*
X388590Y204267D01*
X388717Y203600D01*
X388590Y202933D01*
X388210Y202517D01*
X387767Y202267D01*
X386183D01*
G01X387767D02*
X388717Y199850D01*
G01X391347Y201933D02*
X391790Y202517D01*
X392170Y202850D01*
X392677Y203017D01*
X393120Y202850D01*
X393437Y202517D01*
X393690Y202017D01*
X393753Y201433D01*
X393690Y200933D01*
X393437Y200433D01*
X393057Y200017D01*
X392613Y199850D01*
X392107Y200017D01*
X391663Y200517D01*
X391410Y201267D01*
X391347Y202100D01*
X391473Y203183D01*
X391663Y203767D01*
X391980Y204350D01*
X392423Y204767D01*
X392867Y204850D01*
X393310Y204683D01*
X393627Y204267D01*
G01X380551Y597635D02*
X385551D01*
Y596052D01*
X385301Y595545D01*
X384968Y595229D01*
X384301Y595102D01*
X383634Y595229D01*
X383218Y595609D01*
X382968Y596052D01*
Y597635D01*
G01Y596052D02*
X380551Y595102D01*
G01Y591397D02*
X381634Y591271D01*
X382551Y591081D01*
X383384Y590827D01*
X384301Y590511D01*
X385551Y590004D01*
Y592537D01*
G01X365728Y618533D02*
X366648D01*
G01X366150Y619205D02*
Y617862D01*
G01X362590Y651140D02*
G03X362610Y651070I160J8D01*
G01D02*
G03X362660Y650980I629J290D01*
G01D02*
G03X362740Y650890I685J528D01*
G01D02*
G03X362830Y650800I732J642D01*
G02X362950Y650680I-558J-678D01*
G02X363140Y650440I-6244J-5138D01*
G02X363350Y650150I-7169J-5412D01*
G02X363550Y649840I-8430J-5658D01*
G02X363800Y649410I-4556J-2937D01*
G02X363950Y649050I-1797J-960D01*
G02X364020Y648670I-1929J-552D01*
G02X364040Y648180I-5194J-457D01*
G02X364030Y647710I-9465J-34D01*
G02X363990Y647440I-1178J37D01*
G02X363900Y647290I-367J118D01*
G02X363760Y647200I-222J191D01*
G01D02*
G03X363750Y647180I1J-13D01*
G01D02*
G03X363800Y647150I64J51D01*
G01D02*
G03X363990Y647130I278J1724D01*
G01D02*
G03X364290Y647120I443J8791D01*
G01D02*
G03X364580Y647130I-127J7886D01*
G01D02*
G03X364790Y647140I-1J2223D01*
G01D02*
G03X364890Y647170I-55J367D01*
G01D02*
G03Y647200I-6J15D01*
G02X364800Y647290I60J150D01*
G02X364740Y647490I1118J444D01*
G02X364700Y647790I2156J440D01*
G02X364690Y648170I5688J340D01*
G02X364720Y648700I4949J-14D01*
G02X364810Y649090I1582J-160D01*
G02X365010Y649480I2030J-795D01*
G02X365410Y650100I12862J-7859D01*
G01D02*
G03X365690Y650500I-32322J22923D01*
G01D02*
G03X365920Y650850I-18148J12176D01*
G01D02*
G03X366120Y651160I-48830J31723D01*
G01D02*
G03X366140Y651210I-75J59D01*
G01D02*
G03X366110Y651240I-34J-4D01*
G01D02*
G03X365990Y651260I-333J-1628D01*
G01D02*
G03X365830Y651270I-192J-1784D01*
G01D02*
G03X365630Y651280I-284J-3670D01*
G01D02*
G03X365360Y651270I53J-5088D01*
G01D02*
G03X365260Y651240I0J-182D01*
G01D02*
G03X365250Y651170I37J-41D01*
G01D02*
G03X365320Y651050I522J224D01*
G02X365390Y650900I-261J-213D01*
G02Y650730I-360J-85D01*
G02X365290Y650510I-904J278D01*
G02X365080Y650160I-5894J3298D01*
G02X364900Y649910I-5434J3723D01*
G02X364740Y649700I-3146J2231D01*
G02X364590Y649540I-3251J2897D01*
G02X364530Y649510I-64J54D01*
G02X364320Y649620I-1J253D01*
G02X363960Y650200I8650J5771D01*
G02X363640Y650800I8433J4883D01*
G02X363620Y651050I275J148D01*
G01D02*
G03X363630Y651160I-160J70D01*
G01D02*
G03X363570Y651230I-108J-32D01*
G01D02*
G03X363420Y651270I-182J-380D01*
G01D02*
G03X363150Y651280I-263J-3439D01*
G01D02*
G03X362940Y651270I0J-2202D01*
G01D02*
G03X362760Y651240I107J-1195D01*
G01D02*
G03X362630Y651190I215J-753D01*
G01D02*
G03X362590Y651140I19J-56D01*
G01X360020Y647140D02*
G03X360340Y647130I489J10519D01*
G01D02*
G03X360660Y647140I-169J10529D01*
G01D02*
G03X360880Y647150I0J2422D01*
G01D02*
G03X360950Y647180I-26J158D01*
G01D02*
G03X360940Y647200I-10J8D01*
G02X360790Y647320I61J230D01*
G02X360710Y647580I722J364D01*
G02X360670Y648060I3669J547D01*
G02X360660Y649120I65088J1144D01*
G01Y650960D01*
X361220D01*
G02X361440Y650950I19J-2014D01*
G02X361640Y650910I-195J-1495D01*
G02X361800Y650860I-266J-1133D01*
G02X361870Y650790I-73J-143D01*
G01D02*
G03X361990Y650710I161J112D01*
G01D02*
G03X362120Y650730I42J158D01*
G01D02*
G03X362230Y650860I-158J245D01*
G01D02*
G03X362270Y651050I-432J190D01*
G01D02*
G03X362190Y651170I-126J3D01*
G01D02*
G03X361910Y651230I-404J-1201D01*
G01D02*
G03X361400Y651270I-630J-4757D01*
G01D02*
G03X360420Y651280I-1046J-54455D01*
G01X364650Y655870D02*
G03X364490Y656020I-680J-565D01*
G01X364760Y655700D02*
G03X364650Y655870I-637J-292D01*
G01X364830Y655490D02*
G03X364760Y655700I-832J-161D01*
G01X364850Y655220D02*
G03X364830Y655490I-1705J9D01*
G01X364790Y654840D02*
G03X364850Y655220I-1141J375D01*
G01X364610Y654560D02*
G03X364790Y654840I-454J490D01*
G01X364310Y654400D02*
G03X364610Y654560I-180J698D01*
G01X363890Y654340D02*
G03X364310Y654400I-11J1580D01*
G01X363710Y654380D02*
G03X363890Y654340I174J358D01*
G01X363610Y654500D02*
G03X363710Y654380I198J63D01*
G01X363570Y654740D02*
G03X363610Y654500I818J13D01*
G01X363560Y655310D02*
G03X363570Y654740I17247J17D01*
G01X363600Y655980D02*
G03X363560Y655310I5908J-689D01*
G01X363750Y656250D02*
G03X363600Y655980I243J-312D01*
G01X364030Y656280D02*
G03X363750Y656250I-115J-250D01*
G01X364490Y656020D02*
G03X364030Y656280I-1576J-2252D01*
G01X362780Y656090D02*
G03X362630Y656260I-340J-149D01*
G01X362870Y655810D02*
G03X362780Y656090I-1052J-184D01*
G01X362910Y655320D02*
G03X362870Y655810I-3901J-72D01*
G01X362920Y654340D02*
G03X362910Y655320I-49826J-18D01*
G01Y653360D02*
G03X362920Y654340I-49816J998D01*
G01X362870Y652870D02*
G03X362910Y653360I-3861J562D01*
G01X362780Y652580D02*
G03X362870Y652870I-998J469D01*
G01X362630Y652420D02*
G03X362780Y652580I-174J314D01*
G01X362630Y652420D02*
G03X362570Y652350I66J-117D01*
G01D02*
G03X362600Y652290I42J-16D01*
G01D02*
G03X362800Y652270I186J848D01*
G01D02*
G03X363240I220J16005D01*
G01D02*
G03X363560Y652280I-150J9931D01*
G01D02*
G03X363780Y652300I-98J2300D01*
G01D02*
G03X363850Y652330I-25J154D01*
G01D02*
G03X363840Y652360I-12J13D01*
G02X363710Y652440I79J275D01*
G02X363620Y652580I253J262D01*
G02X363570Y652820I921J317D01*
G02X363560Y653220I6458J362D01*
G02X363600Y653840I4974J-10D01*
G02X363760Y654000I178J-18D01*
G02X364010Y653890I24J-284D01*
G02X364420Y653290I-6864J-5131D01*
G01D02*
G03X364790Y652770I5019J3180D01*
G01D02*
G03X365120Y652460I1209J957D01*
G01D02*
G03X365480Y652300I608J884D01*
G01D02*
G03X365930Y652250I429J1810D01*
G01X366380D01*
X365890Y652500D01*
G02X365670Y652640I517J1056D01*
G02X365410Y652860I2094J2738D01*
G02X365160Y653140I2779J2732D01*
G02X364960Y653410I2154J1805D01*
G01X364520Y654090D01*
X365010Y654470D01*
G01D02*
G03X365360Y654860I-957J1211D01*
G01D02*
G03X365500Y655290I-724J474D01*
G01D02*
G03X365390Y655720I-813J21D01*
G01D02*
G03X365070Y656100I-1125J-623D01*
G01D02*
G03X364800Y656270I-882J-1101D01*
G01D02*
G03X364500Y656370I-576J-1229D01*
G01D02*
G03X364100Y656420I-509J-2446D01*
G01D02*
G03X363500Y656430I-503J-12183D01*
G01D02*
G03X362940Y656420I128J-22857D01*
G01D02*
G03X362670Y656390I47J-1653D01*
G01D02*
G03X362610Y656330I18J-78D01*
G01D02*
G03X362630Y656260I56J-22D01*
G01X360210Y652130D02*
G03X361030Y652370I-172J2107D01*
G01D02*
G03X361550Y652900I-583J1093D01*
G01D02*
G03X361650Y653180I-1064J538D01*
G01D02*
G03X361730Y653590I-4161J1025D01*
G01D02*
G03X361770Y654100I-6211J744D01*
G01D02*
G03X361790Y654730I-13142J733D01*
G02X361800Y655460I25094J21D01*
G02X361840Y655870I2699J-56D01*
G02X361930Y656110I823J-172D01*
G02X362070Y656260I333J-171D01*
G01D02*
G03X362150Y656330I-91J184D01*
G01D02*
G03X362120Y656390I-39J18D01*
G01D02*
G03X361950Y656410I-158J-609D01*
G01D02*
G03X361550Y656420I-551J-14046D01*
G01D02*
G03X361120Y656410I273J-21008D01*
G01D02*
G03X360980Y656380I29J-476D01*
G01D02*
G03X360970Y656340I5J-23D01*
G01X367700Y656360D02*
G03X367150Y656120I1275J-3672D01*
G01D02*
G03X366760Y655830I846J-1545D01*
G01D02*
G03X366480Y655460I1093J-1118D01*
G01D02*
G03X366280Y654970I2244J-1202D01*
G01D02*
G03X366240Y653770I2259J-676D01*
G01D02*
G03X366810Y652790I1859J426D01*
G01D02*
G03X367890Y652230I1551J1669D01*
G01D02*
G03X369280Y652210I747J3580D01*
G01D02*
G03X369670Y652300I-812J4408D01*
G01D02*
G03X369840Y652410I-90J326D01*
G01D02*
G03X369920Y652600I-295J236D01*
G01D02*
G03X369970Y653050I-6483J948D01*
G02X370010Y653330I3037J-291D01*
G02X370060Y653590I2269J-302D01*
G02X370140Y653800I1817J-572D01*
G02X370210Y653890I179J-67D01*
G01D02*
G03Y653940I-15J25D01*
G01D02*
G03X370110Y653970I-133J-262D01*
G01D02*
G03X369900Y654000I-325J-1522D01*
G01D02*
G03X369600I-150J-5426D01*
G01D02*
G03X369160I-220J-23494D01*
G01D02*
G03X369020Y653970I23J-449D01*
G01D02*
G03Y653920I12J-25D01*
G01D02*
G03X369170Y653850I467J805D01*
G02X369360Y653740I-350J-823D01*
G02X369460Y653610I-185J-246D01*
G02X369500Y653420I-458J-196D01*
G02X369490Y653090I-3539J-58D01*
G01X369440Y652490D01*
X368600D01*
G02X367950Y652560I26J3292D01*
G02X367490Y652770I260J1178D01*
G02X367160Y653140I675J934D01*
G02X366920Y653720I2542J1391D01*
G02X366830Y654300I1988J606D01*
G02X366900Y654910I2500J22D01*
G02X367110Y655460I2265J-550D01*
G02X367440Y655880I1376J-741D01*
G02X367900Y656130I745J-822D01*
G02X368520Y656210I589J-2119D01*
G02X369120Y656100I-74J-2097D01*
G02X369520Y655830I-259J-815D01*
G01D02*
G03X369780Y655530I4314J3477D01*
G01D02*
G03X369910Y655490I100J93D01*
G01D02*
G03X369990Y655580I-22J100D01*
G01D02*
G03X370000Y655940I-3898J288D01*
G01D02*
G03X369990Y656170I-1851J35D01*
G01D02*
G03X369940Y656300I-322J-49D01*
G01D02*
G03X369850Y656370I-147J-96D01*
G01D02*
G03X369720Y656390I-112J-294D01*
G02X369570I-75J1202D01*
G02X369360Y656410I413J5444D01*
G02X369110Y656440I655J6513D01*
G02X368870Y656480I838J5766D01*
G01D02*
G03X368610Y656500I-249J-1537D01*
G01D02*
G03X368300Y656490I-64J-2824D01*
G01D02*
G03X367980Y656440I303J-2990D01*
G01D02*
G03X367700Y656360I451J-2109D01*
G01X387350Y668400D02*
Y662100D01*
G01X385548Y668400D02*
X389152D01*
G01X393650Y661890D02*
X393493Y661995D01*
Y662205D01*
X393650Y662310D01*
X393807Y662205D01*
Y661995D01*
X393650Y661890D01*
G01X406877Y665460D02*
X407190Y665775D01*
X407425Y666300D01*
X407582Y667035D01*
X407425Y667665D01*
X407112Y668085D01*
X406563Y668400D01*
X404448D01*
Y662100D01*
X407033D01*
X407582Y662520D01*
X407895Y663150D01*
X408052Y663885D01*
X407895Y664620D01*
X407425Y665250D01*
X406877Y665460D01*
X404448D01*
G01X410983Y662100D02*
Y668400D01*
X412942D01*
X413568Y668085D01*
X413960Y667665D01*
X414117Y666825D01*
X413960Y665985D01*
X413490Y665460D01*
X412942Y665145D01*
X410983D01*
G01X412942D02*
X414117Y662100D01*
G01X417910Y668400D02*
X419790D01*
G01X418850D02*
Y662100D01*
G01X417910D02*
X419790D01*
G01X425620Y665250D02*
X427187D01*
Y663360D01*
X426717Y662730D01*
X426168Y662310D01*
X425385Y662100D01*
X424602Y662310D01*
X424053Y662730D01*
X423583Y663360D01*
X423270Y664095D01*
X423113Y664935D01*
Y665670D01*
X423270Y666300D01*
X423583Y667035D01*
X424053Y667665D01*
X424523Y668085D01*
X425150Y668400D01*
X425698D01*
X426325Y668190D01*
X426795Y667770D01*
G01X431920Y665250D02*
X433487D01*
Y663360D01*
X433017Y662730D01*
X432468Y662310D01*
X431685Y662100D01*
X430902Y662310D01*
X430353Y662730D01*
X429883Y663360D01*
X429570Y664095D01*
X429413Y664935D01*
Y665670D01*
X429570Y666300D01*
X429883Y667035D01*
X430353Y667665D01*
X430823Y668085D01*
X431450Y668400D01*
X431998D01*
X432625Y668190D01*
X433095Y667770D01*
G01X436105Y662940D02*
X436732Y662415D01*
X437437Y662100D01*
X438063D01*
X438690Y662415D01*
X439160Y662940D01*
X439395Y663675D01*
X439238Y664410D01*
X438847Y665040D01*
X438142Y665460D01*
X437202Y665670D01*
X436653Y666090D01*
X436418Y666825D01*
X436575Y667560D01*
X436967Y668085D01*
X437515Y668400D01*
X438063D01*
X438612Y668190D01*
X439082Y667665D01*
G01X449332Y664200D02*
X451368D01*
G01X461462Y667350D02*
X461932Y667980D01*
X462480Y668295D01*
X463107Y668400D01*
X463890Y668190D01*
X464438Y667665D01*
X464595Y667035D01*
X464517Y666405D01*
X464203Y665880D01*
X462637Y664830D01*
X461932Y664095D01*
X461462Y663045D01*
X461305Y662100D01*
X464595D01*
G01X469250Y668400D02*
X468623Y668190D01*
X468153Y667665D01*
X467840Y667035D01*
X467605Y666195D01*
X467527Y665250D01*
X467605Y664305D01*
X467840Y663465D01*
X468153Y662835D01*
X468623Y662310D01*
X469250Y662100D01*
X469877Y662310D01*
X470347Y662835D01*
X470660Y663465D01*
X470895Y664305D01*
X470973Y665250D01*
X470895Y666195D01*
X470660Y667035D01*
X470347Y667665D01*
X469877Y668190D01*
X469250Y668400D01*
G01X475550Y662100D02*
Y668400D01*
X474610Y667140D01*
G01Y662100D02*
X476490D01*
G01X480518Y662835D02*
X481067Y662310D01*
X481693Y662100D01*
X482320Y662310D01*
X482868Y662940D01*
X483260Y663885D01*
X483417Y664830D01*
Y665985D01*
X483260Y666930D01*
X482868Y667770D01*
X482398Y668190D01*
X481850Y668400D01*
X481223Y668190D01*
X480753Y667770D01*
X480440Y667140D01*
X480283Y666300D01*
X480440Y665565D01*
X480832Y664830D01*
X481302Y664410D01*
X481850Y664305D01*
X482477Y664515D01*
X482947Y665040D01*
X483417Y665985D01*
G01X385783Y670000D02*
Y676300D01*
X387742D01*
X388368Y675985D01*
X388760Y675565D01*
X388917Y674725D01*
X388760Y673885D01*
X388290Y673360D01*
X387742Y673045D01*
X385783D01*
G01X387742D02*
X388917Y670000D01*
G01X391692D02*
X393650Y676300D01*
X395608Y670000D01*
G01X394903Y672205D02*
X392397D01*
G01X399010Y676300D02*
X400890D01*
G01X399950D02*
Y670000D01*
G01X399010D02*
X400890D01*
G01X404683Y676300D02*
Y670000D01*
X407817D01*
G01X410983D02*
Y676300D01*
X412942D01*
X413568Y675985D01*
X413960Y675565D01*
X414117Y674725D01*
X413960Y673885D01*
X413490Y673360D01*
X412942Y673045D01*
X410983D01*
G01X412942D02*
X414117Y670000D01*
G01X418850D02*
X418223Y670105D01*
X417675Y670525D01*
X417205Y671155D01*
X416892Y671890D01*
X416735Y672730D01*
Y673570D01*
X416892Y674410D01*
X417205Y675145D01*
X417675Y675775D01*
X418223Y676195D01*
X418850Y676300D01*
X419477Y676195D01*
X420025Y675775D01*
X420495Y675145D01*
X420808Y674410D01*
X420965Y673570D01*
Y672730D01*
X420808Y671890D01*
X420495Y671155D01*
X420025Y670525D01*
X419477Y670105D01*
X418850Y670000D01*
G01X423192D02*
X425150Y676300D01*
X427108Y670000D01*
G01X426403Y672205D02*
X423897D01*
G01X429727Y670000D02*
Y676300D01*
X431293D01*
X431920Y675985D01*
X432390Y675565D01*
X432782Y674935D01*
X433095Y674200D01*
X433173Y673150D01*
X433095Y672100D01*
X432782Y671365D01*
X432390Y670735D01*
X431920Y670315D01*
X431293Y670000D01*
X429727D01*
G01X442483Y676300D02*
Y670000D01*
X445617D01*
G01X449410Y676300D02*
X451290D01*
G01X450350D02*
Y670000D01*
G01X449410D02*
X451290D01*
G01X457120Y673150D02*
X458687D01*
Y671260D01*
X458217Y670630D01*
X457668Y670210D01*
X456885Y670000D01*
X456102Y670210D01*
X455553Y670630D01*
X455083Y671260D01*
X454770Y671995D01*
X454613Y672835D01*
Y673570D01*
X454770Y674200D01*
X455083Y674935D01*
X455553Y675565D01*
X456023Y675985D01*
X456650Y676300D01*
X457198D01*
X457825Y676090D01*
X458295Y675670D01*
G01X461305Y670000D02*
Y676300D01*
G01X464595D02*
Y670000D01*
G01Y673150D02*
X461305D01*
G01X469250Y676300D02*
Y670000D01*
G01X467448Y676300D02*
X471052D01*
G01X483573Y675775D02*
X483103Y676090D01*
X482555Y676300D01*
X481928D01*
X481223Y675985D01*
X480675Y675460D01*
X480283Y674830D01*
X479970Y673780D01*
X479892Y672835D01*
X480048Y671890D01*
X480283Y671260D01*
X480753Y670630D01*
X481302Y670210D01*
X481850Y670000D01*
X482398D01*
X482947Y670210D01*
X483417Y670525D01*
X483808Y670945D01*
G01X488150Y670000D02*
X487523Y670105D01*
X486975Y670525D01*
X486505Y671155D01*
X486192Y671890D01*
X486035Y672730D01*
Y673570D01*
X486192Y674410D01*
X486505Y675145D01*
X486975Y675775D01*
X487523Y676195D01*
X488150Y676300D01*
X488777Y676195D01*
X489325Y675775D01*
X489795Y675145D01*
X490108Y674410D01*
X490265Y673570D01*
Y672730D01*
X490108Y671890D01*
X489795Y671155D01*
X489325Y670525D01*
X488777Y670105D01*
X488150Y670000D01*
G01X492648D02*
Y676300D01*
X496252Y670000D01*
Y676300D01*
G01X500750D02*
Y670000D01*
G01X498948Y676300D02*
X502552D01*
G01X505483Y670000D02*
Y676300D01*
X507442D01*
X508068Y675985D01*
X508460Y675565D01*
X508617Y674725D01*
X508460Y673885D01*
X507990Y673360D01*
X507442Y673045D01*
X505483D01*
G01X507442D02*
X508617Y670000D01*
G01X513350D02*
X512723Y670105D01*
X512175Y670525D01*
X511705Y671155D01*
X511392Y671890D01*
X511235Y672730D01*
Y673570D01*
X511392Y674410D01*
X511705Y675145D01*
X512175Y675775D01*
X512723Y676195D01*
X513350Y676300D01*
X513977Y676195D01*
X514525Y675775D01*
X514995Y675145D01*
X515308Y674410D01*
X515465Y673570D01*
Y672730D01*
X515308Y671890D01*
X514995Y671155D01*
X514525Y670525D01*
X513977Y670105D01*
X513350Y670000D01*
G01X518083Y676300D02*
Y670000D01*
X521217D01*
G01X524383Y676300D02*
Y670000D01*
X527517D01*
G01X533817D02*
X530683D01*
Y676300D01*
X533817D01*
G01X532563Y673255D02*
X530683D01*
G01X536983Y670000D02*
Y676300D01*
X538942D01*
X539568Y675985D01*
X539960Y675565D01*
X540117Y674725D01*
X539960Y673885D01*
X539490Y673360D01*
X538942Y673045D01*
X536983D01*
G01X538942D02*
X540117Y670000D01*
G01X360260Y667430D02*
G03X360270Y667470I-4J22D01*
G01D02*
G03X360170Y667500I-96J-138D01*
G01X408467Y257307D02*
X404800Y260093D01*
G01X404133Y258700D02*
X409133D01*
G01X408467Y260093D02*
X404800Y257307D01*
G01X406633Y256800D02*
Y260600D01*
G01X420551Y597635D02*
X425551D01*
Y596052D01*
X425301Y595545D01*
X424968Y595229D01*
X424301Y595102D01*
X423634Y595229D01*
X423218Y595609D01*
X422968Y596052D01*
Y597635D01*
G01Y596052D02*
X420551Y595102D01*
G01Y591271D02*
X425551D01*
X424551Y592030D01*
G01X420551D02*
Y590511D01*
G01X425551Y586173D02*
X425384Y586679D01*
X424968Y587059D01*
X424468Y587312D01*
X423801Y587502D01*
X423051Y587565D01*
X422301Y587502D01*
X421634Y587312D01*
X421134Y587059D01*
X420718Y586679D01*
X420551Y586173D01*
X420718Y585666D01*
X421134Y585286D01*
X421634Y585033D01*
X422301Y584843D01*
X423051Y584780D01*
X423801Y584843D01*
X424468Y585033D01*
X424968Y585286D01*
X425384Y585666D01*
X425551Y586173D01*
G01X405728Y618533D02*
X406648D01*
G01X406150Y619205D02*
Y617862D01*
G01X436183Y197350D02*
Y202350D01*
X437767D01*
X438273Y202100D01*
X438590Y201767D01*
X438717Y201100D01*
X438590Y200433D01*
X438210Y200017D01*
X437767Y199767D01*
X436183D01*
G01X437767D02*
X438717Y197350D01*
G01X441473Y197933D02*
X441917Y197517D01*
X442423Y197350D01*
X442930Y197517D01*
X443373Y198017D01*
X443690Y198767D01*
X443817Y199517D01*
Y200433D01*
X443690Y201183D01*
X443373Y201850D01*
X442993Y202183D01*
X442550Y202350D01*
X442043Y202183D01*
X441663Y201850D01*
X441410Y201350D01*
X441283Y200683D01*
X441410Y200100D01*
X441727Y199517D01*
X442107Y199183D01*
X442550Y199100D01*
X443057Y199267D01*
X443437Y199683D01*
X443817Y200433D01*
G01X431890Y280833D02*
Y277250D01*
X432143Y276500D01*
X432650Y276000D01*
X433283Y275833D01*
X433916Y276000D01*
X434423Y276500D01*
X434676Y277250D01*
Y280833D01*
G01X439143Y275833D02*
Y280833D01*
X436800Y277250D01*
X439966D01*
G01X442365Y320551D02*
Y325551D01*
X443948D01*
X444455Y325301D01*
X444771Y324968D01*
X444898Y324301D01*
X444771Y323634D01*
X444391Y323218D01*
X443948Y322968D01*
X442365D01*
G01X443948D02*
X444898Y320551D01*
G01X448729D02*
Y325551D01*
X447970Y324551D01*
G01Y320551D02*
X449489D01*
G01X454587D02*
Y325551D01*
X452245Y321968D01*
X455410D01*
G01X438865Y397051D02*
Y402051D01*
X440448D01*
X440955Y401801D01*
X441271Y401468D01*
X441398Y400801D01*
X441271Y400134D01*
X440891Y399718D01*
X440448Y399468D01*
X438865D01*
G01X440448D02*
X441398Y397051D01*
G01X445229D02*
Y402051D01*
X444470Y401051D01*
G01Y397051D02*
X445989D01*
G01X448935Y398051D02*
X449314Y397468D01*
X449821Y397134D01*
X450391Y397051D01*
X450897Y397134D01*
X451404Y397551D01*
X451720Y398051D01*
X451784Y398551D01*
X451657Y399134D01*
X451214Y399551D01*
X450771Y399718D01*
X450201D01*
G01X450771D02*
X451151Y399968D01*
X451467Y400384D01*
X451594Y400884D01*
X451467Y401384D01*
X451151Y401801D01*
X450581Y402051D01*
X450011Y401968D01*
X449441Y401634D01*
G01X442365Y480551D02*
Y485551D01*
X443948D01*
X444455Y485301D01*
X444771Y484968D01*
X444898Y484301D01*
X444771Y483634D01*
X444391Y483218D01*
X443948Y482968D01*
X442365D01*
G01X443948D02*
X444898Y480551D01*
G01X447526Y484718D02*
X447906Y485218D01*
X448350Y485468D01*
X448856Y485551D01*
X449489Y485384D01*
X449933Y484968D01*
X450059Y484468D01*
X449996Y483968D01*
X449743Y483551D01*
X448476Y482718D01*
X447906Y482134D01*
X447526Y481301D01*
X447400Y480551D01*
X450059D01*
G01X462365Y270551D02*
Y275551D01*
X463948D01*
X464455Y275301D01*
X464771Y274968D01*
X464898Y274301D01*
X464771Y273634D01*
X464391Y273218D01*
X463948Y272968D01*
X462365D01*
G01X463948D02*
X464898Y270551D01*
G01X467337Y271551D02*
X467716Y270968D01*
X468223Y270634D01*
X468793Y270551D01*
X469299Y270634D01*
X469806Y271051D01*
X470122Y271551D01*
X470186Y272051D01*
X470059Y272634D01*
X469616Y273051D01*
X469173Y273218D01*
X468603D01*
G01X469173D02*
X469553Y273468D01*
X469869Y273884D01*
X469996Y274384D01*
X469869Y274884D01*
X469553Y275301D01*
X468983Y275551D01*
X468413Y275468D01*
X467843Y275134D01*
G01X460543Y317759D02*
X469945D01*
Y314883D01*
X469475Y313963D01*
X468848Y313387D01*
X467594Y313157D01*
X466341Y313387D01*
X465557Y314078D01*
X465087Y314883D01*
Y317759D01*
G01Y314883D02*
X460543Y313157D01*
G01Y306257D02*
X469945D01*
X468065Y307637D01*
G01X460543D02*
Y304877D01*
G01X466107Y322633D02*
X468893Y326300D01*
G01X467500Y326967D02*
Y321967D01*
G01X468893Y322633D02*
X466107Y326300D01*
G01X465600Y324467D02*
X469400D01*
G01X466107Y402633D02*
X468893Y406300D01*
G01X467500Y406967D02*
Y401967D01*
G01X468893Y402633D02*
X466107Y406300D01*
G01X465600Y404467D02*
X469400D01*
G01X466107Y482633D02*
X468893Y486300D01*
G01X467500Y486967D02*
Y481967D01*
G01X468893Y482633D02*
X466107Y486300D01*
G01X465600Y484467D02*
X469400D01*
G01X472683Y581500D02*
X473000Y581000D01*
X473380Y580667D01*
X473823Y580500D01*
X474330Y580667D01*
X474710Y581000D01*
X475090Y581500D01*
X475217Y582167D01*
Y585500D01*
G01X477657Y581500D02*
X478037Y580917D01*
X478543Y580583D01*
X479113Y580500D01*
X479620Y580583D01*
X480127Y581000D01*
X480443Y581500D01*
X480507Y582000D01*
X480380Y582583D01*
X479937Y583000D01*
X479493Y583167D01*
X478923D01*
G01X479493D02*
X479873Y583417D01*
X480190Y583833D01*
X480317Y584333D01*
X480190Y584833D01*
X479873Y585250D01*
X479303Y585500D01*
X478733Y585417D01*
X478163Y585083D01*
G01X459700Y584000D02*
Y589000D01*
X458940Y588000D01*
G01Y584000D02*
X460460D01*
G01X459700Y591000D02*
Y596000D01*
X458940Y595000D01*
G01Y591000D02*
X460460D01*
G01X479587Y610345D02*
X479845Y610652D01*
X480000Y610997D01*
Y611303D01*
X479845Y611610D01*
X479587Y611840D01*
X479225Y611955D01*
X478863Y611878D01*
X478553Y611687D01*
X478347Y611342D01*
X478243Y610882D01*
X478037Y610613D01*
X477675Y610498D01*
X477313Y610575D01*
X477055Y610767D01*
X476900Y611035D01*
Y611303D01*
X477003Y611572D01*
X477262Y611802D01*
G01X480000Y615017D02*
Y613483D01*
X476900D01*
Y615017D01*
G01X478398Y614403D02*
Y613483D01*
G01X480000Y616468D02*
X476900D01*
X480000Y618232D01*
X476900D01*
G01X479587Y619645D02*
X479845Y619952D01*
X480000Y620297D01*
Y620603D01*
X479845Y620910D01*
X479587Y621140D01*
X479225Y621255D01*
X478863Y621178D01*
X478553Y620987D01*
X478347Y620642D01*
X478243Y620182D01*
X478037Y619913D01*
X477675Y619798D01*
X477313Y619875D01*
X477055Y620067D01*
X476900Y620335D01*
Y620603D01*
X477003Y620872D01*
X477262Y621102D01*
G01X480000Y624317D02*
Y622783D01*
X476900D01*
Y624317D01*
G01X478398Y623703D02*
Y622783D01*
G01X469380Y610307D02*
X469742Y610537D01*
X469948Y610843D01*
X470000Y611188D01*
X469948Y611495D01*
X469690Y611802D01*
X469380Y611993D01*
X469070Y612032D01*
X468708Y611955D01*
X468450Y611687D01*
X468347Y611418D01*
Y611073D01*
G01Y611418D02*
X468192Y611648D01*
X467933Y611840D01*
X467623Y611917D01*
X467313Y611840D01*
X467055Y611648D01*
X466900Y611303D01*
X466952Y610958D01*
X467158Y610613D01*
G01X470103Y614250D02*
X470052Y614173D01*
X469948D01*
X469897Y614250D01*
X469948Y614327D01*
X470052D01*
X470103Y614250D01*
G01X469380Y616507D02*
X469742Y616737D01*
X469948Y617043D01*
X470000Y617388D01*
X469948Y617695D01*
X469690Y618002D01*
X469380Y618193D01*
X469070Y618232D01*
X468708Y618155D01*
X468450Y617887D01*
X468347Y617618D01*
Y617273D01*
G01Y617618D02*
X468192Y617848D01*
X467933Y618040D01*
X467623Y618117D01*
X467313Y618040D01*
X467055Y617848D01*
X466900Y617503D01*
X466952Y617158D01*
X467158Y616813D01*
G01X460840Y631400D02*
X461587Y630775D01*
X462427Y630400D01*
X463173D01*
X463920Y630775D01*
X464480Y631400D01*
X464760Y632275D01*
X464573Y633150D01*
X464107Y633900D01*
X463267Y634400D01*
X462147Y634650D01*
X461493Y635150D01*
X461213Y636025D01*
X461400Y636900D01*
X461867Y637525D01*
X462520Y637900D01*
X463173D01*
X463827Y637650D01*
X464387Y637025D01*
G01X472167Y630400D02*
X468433D01*
Y637900D01*
X472167D01*
G01X470673Y634275D02*
X468433D01*
G01X475653Y630400D02*
Y637900D01*
X479947Y630400D01*
Y637900D01*
G01X483340Y631400D02*
X484087Y630775D01*
X484927Y630400D01*
X485673D01*
X486420Y630775D01*
X486980Y631400D01*
X487260Y632275D01*
X487073Y633150D01*
X486607Y633900D01*
X485767Y634400D01*
X484647Y634650D01*
X483993Y635150D01*
X483713Y636025D01*
X483900Y636900D01*
X484367Y637525D01*
X485020Y637900D01*
X485673D01*
X486327Y637650D01*
X486887Y637025D01*
G01X492800Y630400D02*
X492053Y630525D01*
X491400Y631025D01*
X490840Y631775D01*
X490467Y632650D01*
X490280Y633650D01*
Y634650D01*
X490467Y635650D01*
X490840Y636525D01*
X491400Y637275D01*
X492053Y637775D01*
X492800Y637900D01*
X493547Y637775D01*
X494200Y637275D01*
X494760Y636525D01*
X495133Y635650D01*
X495320Y634650D01*
Y633650D01*
X495133Y632650D01*
X494760Y631775D01*
X494200Y631025D01*
X493547Y630525D01*
X492800Y630400D01*
G01X498433D02*
Y637900D01*
X500767D01*
X501513Y637525D01*
X501980Y637025D01*
X502167Y636025D01*
X501980Y635025D01*
X501420Y634400D01*
X500767Y634025D01*
X498433D01*
G01X500767D02*
X502167Y630400D01*
G01X460747Y640000D02*
Y647500D01*
X462613D01*
X463360Y647125D01*
X463920Y646625D01*
X464387Y645875D01*
X464760Y645000D01*
X464853Y643750D01*
X464760Y642500D01*
X464387Y641625D01*
X463920Y640875D01*
X463360Y640375D01*
X462613Y640000D01*
X460747D01*
G01X467967D02*
X470300Y647500D01*
X472633Y640000D01*
G01X471793Y642625D02*
X468807D01*
G01X477800Y640000D02*
Y643375D01*
X475933Y647500D01*
G01X479667D02*
X477800Y643375D01*
G01X483433Y647500D02*
Y640000D01*
X487167D01*
G01X491680Y647500D02*
X493920D01*
G01X492800D02*
Y640000D01*
G01X491680D02*
X493920D01*
G01X500860Y643750D02*
X502727D01*
Y641500D01*
X502167Y640750D01*
X501513Y640250D01*
X500580Y640000D01*
X499647Y640250D01*
X498993Y640750D01*
X498433Y641500D01*
X498060Y642375D01*
X497873Y643375D01*
Y644250D01*
X498060Y645000D01*
X498433Y645875D01*
X498993Y646625D01*
X499553Y647125D01*
X500300Y647500D01*
X500953D01*
X501700Y647250D01*
X502260Y646750D01*
G01X505840Y640000D02*
Y647500D01*
G01X509760D02*
Y640000D01*
G01Y643750D02*
X505840D01*
G01X515300Y647500D02*
Y640000D01*
G01X513153Y647500D02*
X517447D01*
G01X482365Y220551D02*
Y225551D01*
X483948D01*
X484455Y225301D01*
X484771Y224968D01*
X484898Y224301D01*
X484771Y223634D01*
X484391Y223218D01*
X483948Y222968D01*
X482365D01*
G01X483948D02*
X484898Y220551D01*
G01X489489D02*
Y225551D01*
X487147Y221968D01*
X490312D01*
G01X496222Y259232D02*
X495972Y258853D01*
X495805Y258409D01*
Y257903D01*
X496055Y257333D01*
X496472Y256890D01*
X496972Y256573D01*
X497805Y256320D01*
X498555Y256257D01*
X499305Y256383D01*
X499805Y256573D01*
X500305Y256953D01*
X500638Y257396D01*
X500805Y257839D01*
Y258283D01*
X500638Y258726D01*
X500388Y259106D01*
X500055Y259422D01*
G01X499805Y261545D02*
X500388Y261924D01*
X500722Y262431D01*
X500805Y263001D01*
X500722Y263507D01*
X500305Y264014D01*
X499805Y264330D01*
X499305Y264394D01*
X498722Y264267D01*
X498305Y263824D01*
X498138Y263381D01*
Y262811D01*
G01Y263381D02*
X497888Y263761D01*
X497472Y264077D01*
X496972Y264204D01*
X496472Y264077D01*
X496055Y263761D01*
X495805Y263191D01*
X495888Y262621D01*
X496222Y262051D01*
G01X486057Y362500D02*
Y358917D01*
X486310Y358167D01*
X486817Y357667D01*
X487450Y357500D01*
X488083Y357667D01*
X488590Y358167D01*
X488843Y358917D01*
Y362500D01*
G01X491157Y358250D02*
X491537Y357833D01*
X491980Y357583D01*
X492550Y357500D01*
X493120Y357667D01*
X493563Y358000D01*
X493880Y358583D01*
X493943Y359250D01*
X493817Y359917D01*
X493500Y360333D01*
X493057Y360667D01*
X492613Y360750D01*
X492170Y360667D01*
X491600Y360333D01*
X491790Y362500D01*
X493500D01*
G01X486057Y442500D02*
Y438917D01*
X486310Y438167D01*
X486817Y437667D01*
X487450Y437500D01*
X488083Y437667D01*
X488590Y438167D01*
X488843Y438917D01*
Y442500D01*
G01X491347Y441667D02*
X491727Y442167D01*
X492170Y442417D01*
X492677Y442500D01*
X493310Y442333D01*
X493753Y441917D01*
X493880Y441417D01*
X493817Y440917D01*
X493563Y440500D01*
X492297Y439667D01*
X491727Y439083D01*
X491347Y438250D01*
X491220Y437500D01*
X493880D01*
G01X486057Y522500D02*
Y518917D01*
X486310Y518167D01*
X486817Y517667D01*
X487450Y517500D01*
X488083Y517667D01*
X488590Y518167D01*
X488843Y518917D01*
Y522500D01*
G01X491157Y518500D02*
X491537Y517917D01*
X492043Y517583D01*
X492613Y517500D01*
X493120Y517583D01*
X493627Y518000D01*
X493943Y518500D01*
X494007Y519000D01*
X493880Y519583D01*
X493437Y520000D01*
X492993Y520167D01*
X492423D01*
G01X492993D02*
X493373Y520417D01*
X493690Y520833D01*
X493817Y521333D01*
X493690Y521833D01*
X493373Y522250D01*
X492803Y522500D01*
X492233Y522417D01*
X491663Y522083D01*
G01X491907Y585000D02*
X492287Y584417D01*
X492793Y584083D01*
X493363Y584000D01*
X493870Y584083D01*
X494377Y584500D01*
X494693Y585000D01*
X494757Y585500D01*
X494630Y586083D01*
X494187Y586500D01*
X493743Y586667D01*
X493173D01*
G01X493743D02*
X494123Y586917D01*
X494440Y587333D01*
X494567Y587833D01*
X494440Y588333D01*
X494123Y588750D01*
X493553Y589000D01*
X492983Y588917D01*
X492413Y588583D01*
G01X498907Y585000D02*
X499287Y584417D01*
X499793Y584083D01*
X500363Y584000D01*
X500870Y584083D01*
X501377Y584500D01*
X501693Y585000D01*
X501757Y585500D01*
X501630Y586083D01*
X501187Y586500D01*
X500743Y586667D01*
X500173D01*
G01X500743D02*
X501123Y586917D01*
X501440Y587333D01*
X501567Y587833D01*
X501440Y588333D01*
X501123Y588750D01*
X500553Y589000D01*
X499983Y588917D01*
X499413Y588583D01*
G01X488450Y611380D02*
Y612147D01*
X489380D01*
X489690Y611917D01*
X489897Y611648D01*
X490000Y611265D01*
X489897Y610882D01*
X489690Y610613D01*
X489380Y610383D01*
X489018Y610230D01*
X488605Y610153D01*
X488243D01*
X487933Y610230D01*
X487572Y610383D01*
X487262Y610613D01*
X487055Y610843D01*
X486900Y611150D01*
Y611418D01*
X487003Y611725D01*
X487210Y611955D01*
G01X490000Y613368D02*
X486900D01*
X490000Y615132D01*
X486900D01*
G01X490000Y616507D02*
X486900D01*
Y617273D01*
X487055Y617580D01*
X487262Y617810D01*
X487572Y618002D01*
X487933Y618155D01*
X488450Y618193D01*
X488967Y618155D01*
X489328Y618002D01*
X489638Y617810D01*
X489845Y617580D01*
X490000Y617273D01*
Y616507D01*
G01X522140Y181000D02*
X523660D01*
G01X522900D02*
Y176000D01*
G01X522140D02*
X523660D01*
G01X529393Y180583D02*
X529013Y180833D01*
X528570Y181000D01*
X528063D01*
X527493Y180750D01*
X527050Y180333D01*
X526733Y179833D01*
X526480Y179000D01*
X526417Y178250D01*
X526543Y177500D01*
X526733Y177000D01*
X527113Y176500D01*
X527557Y176167D01*
X528000Y176000D01*
X528443D01*
X528887Y176167D01*
X529267Y176417D01*
X529583Y176750D01*
G01X531707Y176000D02*
Y181000D01*
X532973D01*
X533480Y180750D01*
X533860Y180417D01*
X534177Y179917D01*
X534430Y179333D01*
X534493Y178500D01*
X534430Y177667D01*
X534177Y177083D01*
X533860Y176583D01*
X533480Y176250D01*
X532973Y176000D01*
X531707D01*
G01X536807Y177000D02*
X537187Y176417D01*
X537693Y176083D01*
X538263Y176000D01*
X538770Y176083D01*
X539277Y176500D01*
X539593Y177000D01*
X539657Y177500D01*
X539530Y178083D01*
X539087Y178500D01*
X538643Y178667D01*
X538073D01*
G01X538643D02*
X539023Y178917D01*
X539340Y179333D01*
X539467Y179833D01*
X539340Y180333D01*
X539023Y180750D01*
X538453Y181000D01*
X537883Y180917D01*
X537313Y180583D01*
G01X549793D02*
X549413Y180833D01*
X548970Y181000D01*
X548463D01*
X547893Y180750D01*
X547450Y180333D01*
X547133Y179833D01*
X546880Y179000D01*
X546817Y178250D01*
X546943Y177500D01*
X547133Y177000D01*
X547513Y176500D01*
X547957Y176167D01*
X548400Y176000D01*
X548843D01*
X549287Y176167D01*
X549667Y176417D01*
X549983Y176750D01*
G01X553500Y176000D02*
X552993Y176083D01*
X552550Y176417D01*
X552170Y176917D01*
X551917Y177500D01*
X551790Y178167D01*
Y178833D01*
X551917Y179500D01*
X552170Y180083D01*
X552550Y180583D01*
X552993Y180917D01*
X553500Y181000D01*
X554007Y180917D01*
X554450Y180583D01*
X554830Y180083D01*
X555083Y179500D01*
X555210Y178833D01*
Y178167D01*
X555083Y177500D01*
X554830Y176917D01*
X554450Y176417D01*
X554007Y176083D01*
X553500Y176000D01*
G01X557143D02*
Y181000D01*
X560057Y176000D01*
Y181000D01*
G01X562243Y176000D02*
Y181000D01*
X565157Y176000D01*
Y181000D01*
G01X529557Y286000D02*
Y282417D01*
X529810Y281667D01*
X530317Y281167D01*
X530950Y281000D01*
X531583Y281167D01*
X532090Y281667D01*
X532343Y282417D01*
Y286000D01*
G01X534847Y283083D02*
X535290Y283667D01*
X535670Y284000D01*
X536177Y284167D01*
X536620Y284000D01*
X536937Y283667D01*
X537190Y283167D01*
X537253Y282583D01*
X537190Y282083D01*
X536937Y281583D01*
X536557Y281167D01*
X536113Y281000D01*
X535607Y281167D01*
X535163Y281667D01*
X534910Y282417D01*
X534847Y283250D01*
X534973Y284333D01*
X535163Y284917D01*
X535480Y285500D01*
X535923Y285917D01*
X536367Y286000D01*
X536810Y285833D01*
X537127Y285417D01*
G01X513357Y305167D02*
X516143Y308834D01*
G01X514750Y309501D02*
Y304501D01*
G01X516143Y305167D02*
X513357Y308834D01*
G01X512850Y307001D02*
X516650D01*
G01X522365Y590551D02*
Y595551D01*
X523948D01*
X524455Y595301D01*
X524771Y594968D01*
X524898Y594301D01*
X524771Y593634D01*
X524391Y593218D01*
X523948Y592968D01*
X522365D01*
G01X523948D02*
X524898Y590551D01*
G01X528729D02*
X529173Y590634D01*
X529679Y590884D01*
X529996Y591301D01*
X530122Y591884D01*
X529996Y592468D01*
X529616Y592968D01*
X529046Y593218D01*
X528413D01*
X528033Y593384D01*
X527716Y593801D01*
X527590Y594384D01*
X527780Y594968D01*
X528223Y595384D01*
X528729Y595551D01*
X529236Y595384D01*
X529679Y594968D01*
X529869Y594384D01*
X529743Y593801D01*
X529426Y593384D01*
X529046Y593218D01*
X528413D01*
X527843Y592968D01*
X527463Y592468D01*
X527337Y591884D01*
X527463Y591301D01*
X527780Y590884D01*
X528286Y590634D01*
X528729Y590551D01*
G01X566205Y265528D02*
X565826Y265778D01*
X565382Y265945D01*
X564876D01*
X564306Y265695D01*
X563863Y265278D01*
X563546Y264778D01*
X563293Y263945D01*
X563230Y263195D01*
X563356Y262445D01*
X563546Y261945D01*
X563926Y261445D01*
X564369Y261112D01*
X564812Y260945D01*
X565256D01*
X565699Y261112D01*
X566079Y261362D01*
X566395Y261695D01*
G01X570670Y260945D02*
Y265945D01*
X568328Y262362D01*
X571493D01*
G01X566205Y295528D02*
X565826Y295778D01*
X565382Y295945D01*
X564876D01*
X564306Y295695D01*
X563863Y295278D01*
X563546Y294778D01*
X563293Y293945D01*
X563230Y293195D01*
X563356Y292445D01*
X563546Y291945D01*
X563926Y291445D01*
X564369Y291112D01*
X564812Y290945D01*
X565256D01*
X565699Y291112D01*
X566079Y291362D01*
X566395Y291695D01*
G01X568518D02*
X568897Y291278D01*
X569341Y291028D01*
X569910Y290945D01*
X570480Y291112D01*
X570924Y291445D01*
X571240Y292028D01*
X571303Y292695D01*
X571177Y293362D01*
X570860Y293778D01*
X570417Y294112D01*
X569974Y294195D01*
X569531Y294112D01*
X568961Y293778D01*
X569151Y295945D01*
X570860D01*
G54D12*
G01X380500Y183600D02*
G03I-500J0D01*
G01X376500Y188100D02*
X403500D01*
G01X376500Y216600D02*
Y206147D01*
G01Y198853D02*
Y188100D01*
G01X403500Y216600D02*
X376500D01*
G01X403500Y188100D02*
Y200648D01*
G01Y204352D02*
Y216600D01*
G01X414200Y292750D02*
Y262250D01*
G01D02*
X415090D01*
G01Y292750D02*
X414200D01*
G01X430500Y181100D02*
G03I-500J0D01*
G01X426500Y185600D02*
X453500D01*
G01X426500Y214100D02*
Y203647D01*
G01Y196353D02*
Y185600D01*
G01X453500Y214100D02*
X426500D01*
G01X453500Y185600D02*
Y198148D01*
G01Y201852D02*
Y214100D01*
G01X455800Y262250D02*
Y292750D01*
G01X454910Y262250D02*
X455800D01*
G01Y292750D02*
X454910D01*
G01X478050Y334990D02*
Y333600D01*
G01Y414990D02*
Y413600D01*
G01Y494990D02*
Y493600D01*
G01X463600Y576700D02*
X496400D01*
G01X463600Y603300D02*
Y576700D01*
G01X496400Y603300D02*
X463600D01*
G01X498050Y334990D02*
Y333600D01*
G01X481950Y334990D02*
Y333600D01*
G01X501950Y334990D02*
Y333600D01*
G01X498050Y414990D02*
Y413600D01*
G01X481950Y414990D02*
Y413600D01*
G01X501950Y414990D02*
Y413600D01*
G01X498050Y494990D02*
Y493600D01*
G01X481950Y494990D02*
Y493600D01*
G01X501950Y494990D02*
Y493600D01*
G01X496400Y576700D02*
Y603300D01*
G01X518500Y258850D02*
X541500D01*
G01X518500Y261206D02*
Y258850D01*
G01Y301150D02*
Y298794D01*
G01X541500Y301150D02*
X537662D01*
G01X532338D02*
X518500D01*
G01X541500Y258850D02*
Y261206D01*
G01Y298794D02*
Y301150D01*
M02*
